<svg width="48" height="45" viewBox="0 0 48 45" fill="none" xmlns="http://www.w3.org/2000/svg">
<path d="M45.0192 2.67066V22.0331H2.97913V2.67066C2.97913 1.1955 4.11971 0 5.5274 0H42.4709C43.8786 0 45.0192 1.1955 45.0192 2.67066Z" fill="#E73F3F"/>
<path opacity="0.5" d="M24.0001 41.0756L45.0202 41.087V41.395C45.0202 42.8695 43.8796 44.0657 42.4719 44.0657H5.52838C4.12154 44.0657 2.9801 42.8695 2.9801 41.395V41.087L24.0001 41.0756Z" fill="#E73F3F"/>
<path opacity="0.8" d="M45.3043 41.0869H45.02L24 41.0754L2.97996 41.0869H2.69567C1.07326 41.0869 -0.127439 39.8092 0.0108399 38.2457L2.97996 22.0331H45.02L47.9892 38.2457C48.1274 39.8092 46.9267 41.0876 45.3043 41.0869Z" fill="#E73F3F"/>
<path opacity="0.5" d="M33.1727 4.06363H14.8272C14.2647 4.06363 13.8077 3.58516 13.8077 2.9955C13.8077 2.40516 14.2638 1.92737 14.8272 1.92737H33.1727C33.7353 1.92737 34.1922 2.40584 34.1922 2.9955C34.1922 3.58583 33.7362 4.06363 33.1727 4.06363Z" fill="white"/>
</svg>
