<svg width="264" height="195" viewBox="0 0 264 195" fill="none" xmlns="http://www.w3.org/2000/svg">
<path d="M254.507 194.336H15.4205C15.4205 194.336 5.91485 197.438 0.671492 172.752C-4.57187 148.067 22.4139 141.451 28.8305 120.133C35.2472 98.815 7.25386 103.303 9.60708 74.1294C11.9603 44.9562 50.4271 44.3928 69.087 48.3236C87.747 52.2545 85.4137 38.7848 106.99 16.3398C128.567 -6.10521 161.207 -3.85143 177.527 13.5358C193.847 30.9231 188.61 48.8804 209.02 48.8804C229.43 48.8804 248.09 52.8113 260.334 90.3964C272.577 127.982 250.198 145.163 250.603 162.107C250.945 172.944 252.251 183.73 254.507 194.336Z" fill="#FCE8E8"/>
<path opacity="0.6" d="M254.507 194.336H15.4205C15.4205 194.336 5.91485 197.438 0.671492 172.752C-4.57187 148.067 22.4139 141.451 28.8305 120.133C35.2472 98.815 7.25386 103.303 9.60708 74.1294C11.9603 44.9562 50.4271 44.3928 69.087 48.3236C87.747 52.2545 85.4137 38.7848 106.99 16.3398C128.567 -6.10521 161.207 -3.85143 177.527 13.5358C193.847 30.9231 188.61 48.8804 209.02 48.8804C229.43 48.8804 248.09 52.8113 260.334 90.3964C272.577 127.982 250.198 145.163 250.603 162.107C250.945 172.944 252.251 183.73 254.507 194.336Z" fill="white"/>
<path d="M150.157 9H105.081V76.9378H150.157V9Z" fill="#FCE8E8"/>
<path opacity="0.4" d="M150.157 9H105.081V76.9378H150.157V9Z" fill="white"/>
<path d="M143.72 18.7053H111.525V67.2323H143.72V18.7053Z" fill="white"/>
<path d="M69.1865 49.6726H37.912V96.8131H69.1865V49.6726Z" fill="#FCE8E8"/>
<path opacity="0.4" d="M69.1865 49.6726H37.912V96.8131H69.1865V49.6726Z" fill="white"/>
<path d="M64.7188 56.4041H42.3798V90.0749H64.7188V56.4041Z" fill="white"/>
<path d="M220.985 49.6726H189.711V96.8131H220.985V49.6726Z" fill="#FCE8E8"/>
<path opacity="0.4" d="M220.985 49.6726H189.711V96.8131H220.985V49.6726Z" fill="white"/>
<path d="M216.518 56.4041H194.179V90.0749H216.518V56.4041Z" fill="white"/>
<path d="M186.151 141.915C184.825 145.229 183.42 142.578 183.639 128.618C183.745 122.082 184.202 108.731 191.434 111.668C198.375 114.492 189.227 134.239 189.227 134.239L186.151 141.915ZM196.094 143.904C196.094 143.904 211.162 128.2 205.507 123.275C199.628 118.144 194.855 130.626 192.634 136.778C187.901 149.896 188.339 152.872 190.692 150.161L196.094 143.904ZM199.27 157.996C199.27 157.996 213.064 148.173 209.458 143.586C205.706 138.813 200.251 147.669 197.659 152.044C192.137 161.39 192.044 163.73 194.232 161.987L199.27 157.996ZM203.002 172.049C203.002 172.049 216.803 162.226 213.197 157.639C209.438 152.866 203.983 161.715 201.397 166.097C195.876 175.437 195.776 177.783 197.97 176.04L203.002 172.049ZM178.913 143.798C178.913 143.798 159.603 133.748 156.468 140.556C153.2 147.642 166.517 148.716 173.04 149.114C186.96 149.976 189.698 148.716 186.436 147.218L178.913 143.798ZM181.63 154.854C181.63 154.854 160.71 148.849 158.987 156.147C157.197 163.737 170.461 162.113 176.937 161.238C190.752 159.316 193.178 157.539 189.684 156.717L181.63 154.854ZM186.416 166.919C186.416 166.919 168.592 162.318 167.299 168.53C165.973 174.993 177.143 173.335 182.598 172.421C194.232 170.472 196.247 168.914 193.277 168.304L186.416 166.919ZM189.207 176.862C189.207 176.862 171.972 170.392 170.03 176.431C168.008 182.722 179.31 182.258 184.825 181.926C196.605 181.224 198.746 179.891 195.876 178.963L189.207 176.862ZM177.653 126.397C177.653 126.397 169.785 101.937 160.849 106.385C151.569 111.025 162.294 122.035 167.67 127.319C179.131 138.587 182.678 139.37 181.173 135.439L177.653 126.397Z" fill="white"/>
<path d="M164.588 115.128C164.588 115.128 184.355 139.244 189.081 151.315C194.517 165.189 198.216 180.813 198.951 193.739" stroke="#CCCCCC" stroke-width="1.25197" stroke-linecap="round" stroke-linejoin="round"/>
<path d="M185.144 143.433L187.895 120.438" stroke="#CCCCCC" stroke-width="1.25197" stroke-linecap="round" stroke-linejoin="round"/>
<path d="M189.081 151.308L199.024 131.979" stroke="#CCCCCC" stroke-width="1.25197" stroke-linecap="round" stroke-linejoin="round"/>
<path d="M187.629 148.445L166.802 144.202" stroke="#CCCCCC" stroke-width="1.25197" stroke-linecap="round" stroke-linejoin="round"/>
<path d="M192.992 162.279L205.236 148.332" stroke="#CCCCCC" stroke-width="1.25197" stroke-linecap="round" stroke-linejoin="round"/>
<path d="M191.282 157.685L175.565 157.546" stroke="#CCCCCC" stroke-width="1.25197" stroke-linecap="round" stroke-linejoin="round"/>
<path d="M194.311 169.1L182.254 169.57" stroke="#CCCCCC" stroke-width="1.25197" stroke-linecap="round" stroke-linejoin="round"/>
<path d="M196.784 176.378L203.24 167.774" stroke="#CCCCCC" stroke-width="1.25197" stroke-linecap="round" stroke-linejoin="round"/>
<path d="M197.261 179.58L183.155 178.877" stroke="#CCCCCC" stroke-width="1.25197" stroke-linecap="round" stroke-linejoin="round"/>
<path d="M236.543 160.96C234.11 161.874 234.853 159.826 242.377 153.091C245.903 149.929 253.234 143.612 255.223 148.902C257.139 153.986 242.138 158.845 242.138 158.845L236.543 160.96ZM240.368 167.21C240.368 167.21 256.131 167.509 255.972 162.08C255.806 156.432 246.824 160.025 242.463 161.868C233.182 165.799 231.784 167.496 234.382 167.416L240.368 167.21ZM234.435 175.828C234.435 175.828 246.44 178.34 247.11 174.164C247.772 169.822 240.408 171.274 236.808 172.049C229.126 173.7 227.833 174.8 229.828 175.119L234.435 175.828ZM228.821 184.73C228.821 184.73 240.832 187.243 241.495 183.066C242.191 178.725 234.8 180.17 231.194 180.945C223.518 182.596 222.192 183.696 224.181 184.014L228.821 184.73ZM232.009 158.03C232.009 158.03 227.86 142.817 222.729 144.494C217.353 146.237 223.332 153.853 226.328 157.519C232.712 165.348 234.727 166.183 233.918 163.71L232.009 158.03ZM227.462 164.91C227.462 164.91 220.376 150.831 215.649 153.496C210.724 156.28 218.095 162.55 221.754 165.547C229.57 171.95 231.698 172.368 230.432 170.107L227.462 164.91ZM223.398 173.382C223.398 173.382 217.081 161.642 213.144 164.009C209.047 166.475 215.424 171.605 218.593 174.058C225.347 179.288 227.164 179.593 226.03 177.71L223.398 173.382ZM219.474 179.765C219.474 179.765 214.436 167.416 210.273 169.352C205.938 171.34 211.732 177.147 214.622 179.924C220.787 185.844 222.576 186.341 221.635 184.346L219.474 179.765ZM240.627 148.829C240.627 148.829 249.768 132.622 243.013 130.056C235.986 127.405 235.396 138.521 235.231 143.977C234.873 155.617 236.199 157.897 237.551 155.153L240.627 148.829Z" fill="white"/>
<path d="M240.189 136.34C240.189 136.34 237.08 158.706 232.984 167.157C228.277 176.862 221.171 187.196 214.648 193.944" stroke="#CCCCCC" stroke-width="1.25197" stroke-linecap="round" stroke-linejoin="round"/>
<path d="M235.237 161.172L248.82 151.334" stroke="#CCCCCC" stroke-width="1.25197" stroke-linecap="round" stroke-linejoin="round"/>
<path d="M232.984 167.138L248.15 162.922" stroke="#CCCCCC" stroke-width="1.25197" stroke-linecap="round" stroke-linejoin="round"/>
<path d="M233.792 164.957L225.811 151.792" stroke="#CCCCCC" stroke-width="1.25197" stroke-linecap="round" stroke-linejoin="round"/>
<path d="M229.073 174.608L242.509 174.263" stroke="#CCCCCC" stroke-width="1.25197" stroke-linecap="round" stroke-linejoin="round"/>
<path d="M230.677 171.44L223.021 163.008" stroke="#CCCCCC" stroke-width="1.25197" stroke-linecap="round" stroke-linejoin="round"/>
<path d="M226.09 178.658L219.912 172.48" stroke="#CCCCCC" stroke-width="1.25197" stroke-linecap="round" stroke-linejoin="round"/>
<path d="M223.431 183.557L231.187 182.762" stroke="#CCCCCC" stroke-width="1.25197" stroke-linecap="round" stroke-linejoin="round"/>
<path d="M221.96 185.38L215.404 177.538" stroke="#CCCCCC" stroke-width="1.25197" stroke-linecap="round" stroke-linejoin="round"/>
<path d="M33.4111 141.915C32.0854 145.229 30.6801 142.578 30.8988 128.618C31.0049 122.082 31.4623 108.731 38.6943 111.668C45.6412 114.492 36.4869 134.239 36.4869 134.239L33.4111 141.915ZM43.3543 143.904C43.3543 143.904 58.4215 128.2 52.7738 123.275C46.8874 118.144 42.1147 130.626 39.8941 136.778C35.1611 149.896 35.5986 152.872 37.9518 150.161L43.3543 143.904ZM46.5295 157.983C46.5295 157.983 60.3306 148.159 56.7179 143.572C52.966 138.799 47.5105 147.655 44.9187 152.03C39.3969 161.377 39.3041 163.717 41.4982 161.974L46.5295 157.983ZM50.2681 172.036C50.2681 172.036 64.0493 162.192 60.4499 157.625C56.6914 152.852 51.2359 161.702 48.6507 166.083C43.1289 175.423 43.0295 177.77 45.2236 176.027L50.2681 172.036ZM26.1592 143.784C26.1592 143.784 6.85627 133.735 3.71423 140.543C0.446245 147.629 13.7634 148.703 20.2862 149.101C34.2066 149.962 36.9376 148.703 33.6763 147.205L26.1592 143.784ZM28.877 154.841C28.877 154.841 7.96327 148.835 6.23316 156.134C4.44339 163.724 17.7076 162.1 24.1839 161.225C37.9982 159.302 40.431 157.526 36.9376 156.704L28.877 154.841ZM33.663 166.905C33.663 166.905 15.8383 162.305 14.5456 168.516C13.2199 174.979 24.3894 173.322 29.8448 172.407C41.4783 170.458 43.4935 168.901 40.5238 168.291L33.663 166.905ZM36.4537 176.849C36.4537 176.849 19.2189 170.379 17.2767 176.418C15.2549 182.708 26.557 182.244 32.0721 181.913C43.8514 181.21 45.9925 179.878 43.1289 178.95L36.4537 176.849ZM24.913 126.397C24.913 126.397 17.0447 101.963 8.08259 106.411C-1.19769 111.051 9.52766 122.062 14.9036 127.345C26.3714 138.614 29.9178 139.396 28.4064 135.465L24.913 126.397Z" fill="white"/>
<path d="M11.8477 115.128C11.8477 115.128 31.6147 139.244 36.341 151.315C41.7766 165.189 45.4755 180.813 46.2113 193.739" stroke="#CCCCCC" stroke-width="1.25197" stroke-linecap="round" stroke-linejoin="round"/>
<path d="M32.4102 143.433L35.1545 120.438" stroke="#CCCCCC" stroke-width="1.25197" stroke-linecap="round" stroke-linejoin="round"/>
<path d="M36.341 151.308L46.2842 131.979" stroke="#CCCCCC" stroke-width="1.25197" stroke-linecap="round" stroke-linejoin="round"/>
<path d="M34.8894 148.445L14.0684 144.202" stroke="#CCCCCC" stroke-width="1.25197" stroke-linecap="round" stroke-linejoin="round"/>
<path d="M40.2521 162.279L52.4954 148.332" stroke="#CCCCCC" stroke-width="1.25197" stroke-linecap="round" stroke-linejoin="round"/>
<path d="M38.5418 157.685L22.825 157.546" stroke="#CCCCCC" stroke-width="1.25197" stroke-linecap="round" stroke-linejoin="round"/>
<path d="M41.5711 169.1L29.5133 169.57" stroke="#CCCCCC" stroke-width="1.25197" stroke-linecap="round" stroke-linejoin="round"/>
<path d="M44.0503 176.378L50.5068 167.774" stroke="#CCCCCC" stroke-width="1.25197" stroke-linecap="round" stroke-linejoin="round"/>
<path d="M44.5209 179.58L30.4149 178.877" stroke="#CCCCCC" stroke-width="1.25197" stroke-linecap="round" stroke-linejoin="round"/>
<path d="M83.8031 160.96C81.3704 161.874 82.1128 159.826 89.6364 153.091C93.1696 149.929 100.494 143.612 102.483 148.902C104.399 153.986 89.3978 158.845 89.3978 158.845L83.8031 160.96ZM87.6279 167.21C87.6279 167.21 103.391 167.509 103.232 162.08C103.066 156.432 94.0844 160.025 89.7226 161.868C80.4423 165.799 79.0437 167.496 81.6421 167.416L87.6279 167.21ZM81.6952 175.828C81.6952 175.828 93.6999 178.34 94.3694 174.164C95.0323 169.822 87.6677 171.274 84.0683 172.049C76.359 173.7 75.0929 174.787 77.0882 175.119L81.6952 175.828ZM76.0541 184.73C76.0541 184.73 88.0654 187.243 88.7283 183.066C89.4243 178.725 82.0332 180.17 78.4338 180.945C70.7445 182.602 69.4518 183.703 71.4537 184.021L76.0541 184.73ZM79.2425 158.03C79.2425 158.03 75.0996 142.817 69.9623 144.494C64.5863 146.237 70.5588 153.853 73.555 157.519C79.9386 165.348 81.9537 166.183 81.145 163.71L79.2425 158.03ZM74.6952 164.91C74.6952 164.91 67.609 150.831 62.8827 153.496C57.9575 156.28 65.3287 162.55 68.9945 165.547C76.8098 171.95 78.9376 172.368 77.6649 170.107L74.6952 164.91ZM70.6318 173.382C70.6318 173.382 64.3145 161.642 60.377 164.009C56.2805 166.475 62.6573 171.605 65.8259 174.058C72.5806 179.288 74.4035 179.593 73.2634 177.71L70.6318 173.382ZM66.7075 179.765C66.7075 179.765 61.6763 167.416 57.5068 169.352C53.1716 171.34 58.9717 177.147 61.8553 179.924C68.02 185.844 69.8098 186.341 68.8685 184.346L66.7075 179.765ZM87.8599 148.829C87.8599 148.829 97.0076 132.622 90.2529 130.056C83.2198 127.405 82.6365 138.521 82.4641 143.977C82.1128 155.617 83.4319 157.897 84.7842 155.153L87.8599 148.829Z" fill="white"/>
<path d="M87.4489 136.34C87.4489 136.34 84.34 158.706 80.2434 167.157C75.537 176.862 68.4309 187.196 61.9082 193.944" stroke="#CCCCCC" stroke-width="1.25197" stroke-linecap="round" stroke-linejoin="round"/>
<path d="M82.4972 161.172L96.0796 151.334" stroke="#CCCCCC" stroke-width="1.25197" stroke-linecap="round" stroke-linejoin="round"/>
<path d="M80.2433 167.138L95.41 162.922" stroke="#CCCCCC" stroke-width="1.25197" stroke-linecap="round" stroke-linejoin="round"/>
<path d="M81.0522 164.957L73.0711 151.792" stroke="#CCCCCC" stroke-width="1.25197" stroke-linecap="round" stroke-linejoin="round"/>
<path d="M76.3324 174.608L89.7689 174.263" stroke="#CCCCCC" stroke-width="1.25197" stroke-linecap="round" stroke-linejoin="round"/>
<path d="M77.9365 171.44L70.2803 163.008" stroke="#CCCCCC" stroke-width="1.25197" stroke-linecap="round" stroke-linejoin="round"/>
<path d="M73.3495 178.658L67.1714 172.48" stroke="#CCCCCC" stroke-width="1.25197" stroke-linecap="round" stroke-linejoin="round"/>
<path d="M70.6913 183.557L78.447 182.762" stroke="#CCCCCC" stroke-width="1.25197" stroke-linecap="round" stroke-linejoin="round"/>
<path d="M69.2263 185.38L62.6638 177.538" stroke="#CCCCCC" stroke-width="1.25197" stroke-linecap="round" stroke-linejoin="round"/>
<path d="M121.746 57.2591C121.746 57.2591 113.261 54.5545 106.772 61.2363C100.282 67.9181 103.703 81.2618 103.703 85.9484C103.703 90.6349 97.7367 120.418 97.7367 120.418C97.7367 120.418 94.8465 131.243 102.788 138.104C110.729 144.964 125.405 144.368 131.669 131.163C137.934 117.959 131.292 99.133 131.292 89.402C131.292 79.6709 132.737 73.1681 130.569 66.135C129.911 64.0601 128.767 62.1723 127.232 60.6285C125.698 59.0847 123.817 57.9296 121.746 57.2591Z" fill="#E73F3F" stroke="#E73F3F" stroke-linecap="round" stroke-linejoin="round"/>
<path d="M119.227 62.3169C119.227 62.3169 111.047 72.4854 105.525 75.3557" stroke="white" stroke-linecap="round" stroke-linejoin="round"/>
<path d="M112.154 61.4353C112.154 61.4353 107.958 71.5972 104.2 74.4741" stroke="white" stroke-linecap="round" stroke-linejoin="round"/>
<path d="M135.693 96.3888C136.477 96.9382 137.135 97.6477 137.624 98.4705C138.113 99.2932 138.422 100.21 138.53 101.161C139.014 104.542 135.408 112.357 134.685 116.222C134.003 120.914 133.562 125.637 133.366 130.374C133.366 131.581 137.476 149.452 138.199 153.801C138.921 158.149 137.834 168.384 137.231 169.133C136.628 169.882 134.937 166.355 134.818 164.062C134.699 161.768 130.231 144.136 128.54 138.826C126.85 133.517 127.327 126.51 127.327 126.51C127.327 126.51 129.628 110.448 129.628 104.29C129.628 98.1321 129.813 93.5251 129.813 93.5251L135.693 96.3888Z" fill="#FCE8E8" stroke="#E73F3F" stroke-linecap="round" stroke-linejoin="round"/>
<path d="M137.218 169.106C137.821 168.384 138.908 158.116 138.185 153.774C137.463 149.432 133.366 131.554 133.366 130.374C133.565 125.646 134.008 120.931 134.692 116.248C134.957 115.009 135.298 113.787 135.713 112.589C134.292 113.273 132.735 113.627 131.159 113.623C130.317 113.623 129.495 114.399 128.706 115.718C128.043 121.326 127.321 126.51 127.321 126.51C127.321 126.51 126.844 133.51 128.534 138.826C130.224 144.142 134.692 161.768 134.811 164.062C134.931 166.355 136.614 169.829 137.218 169.106Z" fill="white" stroke="#E73F3F" stroke-linecap="round" stroke-linejoin="round"/>
<path d="M112.976 194.461C113.241 191.492 113.798 185.446 114.156 183.113C114.64 179.977 115.601 173.574 115.601 173.574L118.047 194.461H134.805C135.408 189.907 136.926 177.697 137.218 169.106C137.582 158.361 129.489 136.141 129.263 134.451C129.038 132.761 129.502 127.822 129.502 126.364C129.502 124.906 133.718 115.652 134.076 110.939C134.434 106.226 135.527 104.781 135.527 104.781L136.131 96.8261C135.766 96.7068 130.35 92.4445 124.915 90.8602C121.609 89.922 118.119 89.8399 114.773 90.6216C114.773 90.6216 106.924 94.1216 102.94 95.8119C98.9564 97.5022 95.6818 100.764 95.5824 104.986C95.4829 109.209 103.305 127.206 104.034 128.538C104.763 129.871 102.463 134.57 101.495 136.99C100.527 139.409 96.5435 148.1 93.892 157.758C91.6184 166.004 93.1363 188.164 93.6335 194.461H112.976Z" fill="#FCE8E8" stroke="#E73F3F" stroke-linecap="round" stroke-linejoin="round"/>
<path d="M116.741 125.204C116.741 125.204 122.933 125.946 129.13 120" stroke="#E73F3F" stroke-linecap="round" stroke-linejoin="round"/>
<path d="M121.037 107.89C122.846 107.406 125.147 99.935 125.385 96.0572C125.518 93.8895 125.65 92.2721 125.591 91.0789C125.365 91.006 125.133 90.9265 124.928 90.8602C121.622 89.922 118.132 89.8399 114.786 90.6216L111.591 92.0401C111.324 93.7571 111.509 95.5139 112.128 97.1376C113.434 100.764 119.227 108.373 121.037 107.89Z" fill="white" stroke="#E73F3F" stroke-linecap="round" stroke-linejoin="round"/>
<path d="M112.95 86.9163C112.95 86.9163 113.56 94.0289 113.924 95.7723C114.289 97.5157 117.954 104.39 120.029 104.012C122.104 103.634 123.423 94.652 123.423 93.777C123.423 92.902 123.668 85.8225 123.668 85.8225C123.668 85.8225 119.3 89.4087 112.95 86.9163Z" fill="white" stroke="#E73F3F" stroke-linecap="round" stroke-linejoin="round"/>
<path d="M100.991 97.0186C100.991 97.0186 96.0463 97.2638 93.2689 102.819C90.4914 108.374 93.7461 112.099 94.8333 114.287C95.9204 116.474 98.9431 125.396 99.9043 128.054C100.865 130.713 102.808 133.848 106.188 138.196C109.569 142.545 116.688 151.839 116.688 151.839L118.624 155.219C118.624 155.219 121.885 158.964 122.243 159.084C122.601 159.203 124.782 161.981 125.624 160.29C126.466 158.6 125.624 152.568 125.624 152.568C125.624 152.568 126.95 155.219 127.44 154.616C127.931 154.013 127.314 152.687 126.837 151.235C126.36 149.784 121.892 147.013 120.917 146.887C119.943 146.761 118.743 145.561 117.298 142.664C115.853 139.768 114.759 134.71 112.466 131.674C110.172 128.638 107.163 124.19 107.163 124.19C107.163 124.19 103.782 112.112 103.782 111.628C104.029 109.373 103.698 107.092 102.821 105" fill="#FCE8E8"/>
<path d="M100.991 97.0186C100.991 97.0186 96.0463 97.2638 93.2689 102.819C90.4914 108.374 93.7461 112.099 94.8333 114.287C95.9204 116.474 98.9431 125.396 99.9043 128.054C100.865 130.713 102.808 133.848 106.188 138.196C109.569 142.545 116.688 151.839 116.688 151.839L118.624 155.219C118.624 155.219 121.885 158.964 122.243 159.084C122.601 159.203 124.782 161.981 125.624 160.29C126.466 158.6 125.624 152.568 125.624 152.568C125.624 152.568 126.95 155.219 127.44 154.616C127.931 154.013 127.314 152.687 126.837 151.235C126.36 149.784 121.892 147.013 120.917 146.887C119.943 146.761 118.743 145.561 117.298 142.664C115.853 139.768 114.759 134.71 112.466 131.674C110.172 128.638 107.163 124.19 107.163 124.19C107.163 124.19 103.782 112.112 103.782 111.628C104.029 109.373 103.698 107.092 102.821 105" stroke="#E73F3F" stroke-linecap="round" stroke-linejoin="round"/>
<path d="M120.918 146.887C119.95 146.768 118.743 145.561 117.298 142.664C115.853 139.768 114.759 134.71 112.466 131.674C110.172 128.638 107.163 124.19 107.163 124.19C107.163 124.19 104.876 116.01 104.067 112.848C99.6259 112.225 96.696 113.12 94.8333 114.26C95.9204 116.434 98.9432 125.37 99.9043 128.028C100.866 130.686 102.808 133.822 106.188 138.17C109.569 142.519 116.688 151.812 116.688 151.812L118.624 155.193C118.624 155.193 121.885 158.938 122.243 159.057C122.601 159.177 124.782 161.954 125.624 160.264C126.466 158.573 125.624 152.541 125.624 152.541C125.624 152.541 126.95 155.193 127.44 154.589C127.931 153.986 127.314 152.661 126.837 151.209C126.36 149.757 121.892 147.013 120.918 146.887Z" fill="white" stroke="#E73F3F" stroke-linecap="round" stroke-linejoin="round"/>
<path d="M112.976 194.461C113.241 191.492 113.798 185.446 114.156 183.113C114.64 179.978 115.601 173.574 115.601 173.574L118.047 194.461H134.805C135.408 189.907 136.926 177.697 137.218 169.106C137.37 164.632 136.051 158.162 134.447 152.017C120.281 155.12 104.22 152.873 95.8807 151.255C95.178 153.33 94.4886 155.511 93.892 157.758C91.6184 166.004 93.1363 188.164 93.6335 194.461H112.976Z" fill="#E73F3F" stroke="#E73F3F" stroke-linecap="round" stroke-linejoin="round"/>
<path d="M108.754 76.3234C108.754 76.3234 107.673 75.8395 107.673 78.0072C107.673 80.1748 110.079 81.6132 110.079 81.6132L108.754 76.3234Z" fill="white" stroke="#E73F3F" stroke-linecap="round" stroke-linejoin="round"/>
<path d="M121.156 64.4182C121.156 64.4182 117.298 69.8538 113.911 72.028C112.163 73.1771 110.351 74.224 108.482 75.1635C108.482 75.1635 110.172 82.1701 110.895 84.4437C111.617 86.7174 113.785 90.7344 118.133 90.9731C122.482 91.2117 124.417 86.618 125.266 84.4437C125.749 83.3203 126.008 82.1134 126.028 80.8907C126.638 80.5051 127.159 79.9931 127.554 79.3894C127.95 78.7856 128.212 78.1041 128.322 77.3907C128.56 75.0972 127.957 75.2165 127.957 75.2165C127.957 75.2165 127.294 75.9655 125.856 74.8386C124.689 73.9703 120.772 67.6796 121.156 64.4182Z" fill="white" stroke="#E73F3F" stroke-linecap="round" stroke-linejoin="round"/>
<path d="M111.949 78.1464C111.949 78.1464 113.652 76.9002 116.145 78.1464" stroke="#E73F3F" stroke-linecap="round" stroke-linejoin="round"/>
<path d="M119.658 78.3719C119.658 78.3719 121.7 76.5556 123.854 78.0338" stroke="#E73F3F" stroke-linecap="round" stroke-linejoin="round"/>
<path d="M111.611 75.4221C111.611 75.4221 112.519 73.7251 115.588 74.5206" stroke="#E73F3F" stroke-linecap="round" stroke-linejoin="round"/>
<path d="M119.658 74.633C120.352 74.1265 121.208 73.8926 122.064 73.9757C122.919 74.0588 123.714 74.4531 124.298 75.0838" stroke="#E73F3F" stroke-linecap="round" stroke-linejoin="round"/>
<path d="M119.32 82.1104C119.32 82.1104 117.504 83.3566 116.715 82.1104" stroke="#E73F3F" stroke-linecap="round" stroke-linejoin="round"/>
<path d="M116.032 84.7221C116.032 84.7221 118.299 85.6236 119.433 84.6094" stroke="#E73F3F" stroke-linecap="round" stroke-linejoin="round"/>
<path d="M77.7178 149.883C77.7178 149.883 83.0209 161.656 84.287 164.029C85.5531 166.402 87.0246 173.157 87.2036 177.167C87.3826 181.177 87.2036 182.006 86.2955 181.913C85.3873 181.82 85.0161 176.802 85.0161 175.98V174.708C85.0161 174.708 84.5587 179.447 83.8296 180.362C83.1004 181.277 82.0928 182.278 82.0067 181.734C81.9205 181.191 82.1856 180.269 82.5502 178.904C82.7704 177.854 82.833 176.777 82.7358 175.709C82.7358 175.709 82.1856 178.261 80.9129 179.175C79.6402 180.09 78.2614 180.455 78.7188 179.726C79.1762 178.996 80.3627 178.175 80.6345 177.26C80.8224 176.422 80.9158 175.566 80.9129 174.708C80.9129 174.708 79.1762 177.532 78.447 177.989C77.7178 178.446 77.7178 177.445 78.1752 176.988C78.6326 176.531 79.6336 173.428 79.6336 173.428C79.6336 173.428 79.3552 173.243 78.0824 170.419C76.8097 167.595 76.0938 162.657 75.7093 160.741C75.3249 158.825 74.6156 156.273 74.6156 156.273L67.5891 144.5C67.5891 144.5 67.0389 141.67 69.6838 141.186C72.3286 140.702 77.7178 149.883 77.7178 149.883Z" fill="white"/>
<path opacity="0.15" d="M77.7178 149.883C77.7178 149.883 83.0209 161.656 84.287 164.029C85.5531 166.402 87.0246 173.157 87.2036 177.167C87.3826 181.177 87.2036 182.006 86.2955 181.913C85.3873 181.82 85.0161 176.802 85.0161 175.98V174.708C85.0161 174.708 84.5587 179.447 83.8296 180.362C83.1004 181.277 82.0928 182.278 82.0067 181.734C81.9205 181.191 82.1856 180.269 82.5502 178.904C82.7704 177.854 82.833 176.777 82.7358 175.709C82.7358 175.709 82.1856 178.261 80.9129 179.175C79.6402 180.09 78.2614 180.455 78.7188 179.726C79.1762 178.996 80.3627 178.175 80.6345 177.26C80.8224 176.422 80.9158 175.566 80.9129 174.708C80.9129 174.708 79.1762 177.532 78.447 177.989C77.7178 178.446 77.7178 177.445 78.1752 176.988C78.6326 176.531 79.6336 173.428 79.6336 173.428C79.6336 173.428 79.3552 173.243 78.0824 170.419C76.8097 167.595 76.0938 162.657 75.7093 160.741C75.3249 158.825 74.6156 156.273 74.6156 156.273L67.5891 144.5C67.5891 144.5 67.0389 141.67 69.6838 141.186C72.3286 140.702 77.7178 149.883 77.7178 149.883Z" fill="#E73F3F"/>
<path d="M77.7178 149.883C77.7178 149.883 83.0209 161.656 84.287 164.029C85.5531 166.402 87.0246 173.157 87.2036 177.167C87.3826 181.177 87.2036 182.006 86.2955 181.913C85.3873 181.82 85.0161 176.802 85.0161 175.98V174.708C85.0161 174.708 84.5587 179.447 83.8296 180.362C83.1004 181.277 82.0928 182.278 82.0067 181.734C81.9205 181.191 82.1856 180.269 82.5502 178.904C82.7704 177.854 82.833 176.777 82.7358 175.709C82.7358 175.709 82.1856 178.261 80.9129 179.175C79.6402 180.09 78.2614 180.455 78.7188 179.726C79.1762 178.996 80.3627 178.175 80.6345 177.26C80.8224 176.422 80.9158 175.566 80.9129 174.708C80.9129 174.708 79.1762 177.532 78.447 177.989C77.7178 178.446 77.7178 177.445 78.1752 176.988C78.6326 176.531 79.6336 173.428 79.6336 173.428C79.6336 173.428 79.3552 173.243 78.0824 170.419C76.8097 167.595 76.0938 162.657 75.7093 160.741C75.3249 158.825 74.6156 156.273 74.6156 156.273L67.5891 144.5C67.5891 144.5 67.0389 141.67 69.6838 141.186C72.3286 140.702 77.7178 149.883 77.7178 149.883Z" stroke="#E73F3F" stroke-linecap="round" stroke-linejoin="round"/>
<path d="M84.3134 167.496C84.3134 167.496 85.2281 171.97 85.1353 173.972C85.0425 175.974 85.4999 176.988 84.8569 176.988C84.2139 176.988 84.0416 176.531 83.3986 174.522C82.9753 173.033 82.7 171.505 82.5766 169.961C82.5766 169.961 80.2963 169.961 79.4743 166.581" fill="white"/>
<path opacity="0.15" d="M84.3134 167.496C84.3134 167.496 85.2281 171.97 85.1353 173.972C85.0425 175.974 85.4999 176.988 84.8569 176.988C84.2139 176.988 84.0416 176.531 83.3986 174.522C82.9753 173.033 82.7 171.505 82.5766 169.961C82.5766 169.961 80.2963 169.961 79.4743 166.581" fill="#E73F3F"/>
<path d="M84.3134 167.496C84.3134 167.496 85.2281 171.97 85.1353 173.972C85.0425 175.974 85.4999 176.988 84.8569 176.988C84.2139 176.988 84.0416 176.531 83.3986 174.522C82.9753 173.033 82.7 171.505 82.5766 169.961C82.5766 169.961 80.2963 169.961 79.4743 166.581" stroke="#E73F3F" stroke-linecap="round" stroke-linejoin="round"/>
<path d="M43.5796 194.462H77.1742C77.3399 188.177 78.4403 147.132 78.7718 145.296C79.1363 143.307 80.9394 124.548 81.1183 117.157C81.2973 109.766 78.0492 99.1133 78.0492 98.3908C78.0492 97.6682 77.5123 93.1607 72.4612 89.369C67.41 85.5773 63.4394 85.584 62.3589 86.1209C62.3589 86.1209 58.3817 88.8321 52.0711 95.5072C45.7605 102.182 43.5929 107.592 43.5929 117.873C43.5977 124.095 44.141 130.305 45.2169 136.433C45.2169 136.433 43.2283 168.543 43.2283 169.266C43.2283 169.988 43.5199 190.173 43.5796 194.462Z" fill="white" stroke="#E73F3F" stroke-linecap="round" stroke-linejoin="round"/>
<path d="M58.8258 121.876C59.5389 121.875 60.2514 121.835 60.9603 121.757C68.6894 120.915 75.411 113.013 79.8456 106.186C79.6401 105.198 79.4347 104.25 79.2292 103.382C75.0464 110.203 68.2851 118.959 60.7481 119.781C50.2548 120.922 45.502 112.655 44.1762 109.984C43.9906 111.005 43.8514 112.079 43.7586 113.212C46.1052 116.765 50.8448 121.876 58.8258 121.876Z" fill="#E73F3F"/>
<path d="M56.3068 105.928L58.2292 106.438C60.2106 99.2233 64.104 92.6778 69.4981 87.493C68.8559 87.1545 68.1915 86.8599 67.5094 86.6113C62.1427 91.9538 58.2787 98.6163 56.3068 105.928Z" fill="#E73F3F"/>
<path d="M58.196 115.44C58.6468 115.208 68.0397 110.316 77.9564 97.542C77.8025 96.7413 77.5579 95.9607 77.2272 95.2153C67.2443 108.473 57.4006 113.604 57.2945 113.657L58.196 115.44Z" fill="#E73F3F"/>
<path d="M48.392 108.248L50.3807 107.949C50.3807 107.896 49.804 103.196 54.4308 93.1074C53.6884 93.8432 52.9128 94.6387 52.0909 95.507C51.5606 96.0639 51.07 96.614 50.5994 97.1642C47.8882 104.522 48.3655 108.049 48.392 108.248Z" fill="#E73F3F"/>
<path d="M64.7917 137.712C53.3637 139.197 47.5569 136.798 44.9585 134.955C45.1109 135.923 45.217 136.46 45.217 136.46C45.217 136.46 45.217 136.811 45.1573 137.447C47.7028 138.846 51.7861 140.172 58.037 140.172C60.3828 140.162 62.7254 140 65.0503 139.688C70.3181 139.01 75.3817 137.221 79.9053 134.438C79.9849 133.603 80.0578 132.748 80.1307 131.879C75.5452 134.998 70.291 136.996 64.7917 137.712Z" fill="#E73F3F"/>
<path d="M64.2017 149.949C69.4549 148.613 74.4563 146.433 79.0103 143.493C79.0899 142.777 79.1827 141.902 79.2887 140.901C74.5581 144.167 69.2896 146.574 63.7244 148.014C56.0284 149.903 48.5577 147.795 44.6136 146.277C44.5739 146.94 44.5275 147.656 44.4877 148.371C48.5757 149.908 52.9009 150.718 57.268 150.764C59.6034 150.769 61.9311 150.496 64.2017 149.949Z" fill="#E73F3F"/>
<path d="M43.5996 162.941C43.5532 163.657 43.5134 164.333 43.4803 164.93C48.605 166.16 53.8539 166.798 59.1242 166.833C65.6044 166.903 72.0386 165.738 78.0824 163.399C78.0824 162.67 78.1288 161.94 78.1487 161.231C64.8382 166.833 50.5996 164.645 43.5996 162.941Z" fill="#E73F3F"/>
<path d="M65.6534 156.379C58.5197 158.108 51.0514 157.879 44.037 155.716C43.9972 156.412 43.9508 157.101 43.9111 157.784C47.7771 158.966 51.8003 159.554 55.8429 159.528C59.3035 159.524 62.7525 159.128 66.1241 158.348C70.3961 157.358 74.5224 155.82 78.4006 153.774C78.4006 152.952 78.4602 152.17 78.4867 151.44C74.4627 153.682 70.1423 155.345 65.6534 156.379Z" fill="#E73F3F"/>
<path d="M60.0853 128.386C51.9319 128.797 46.662 125.787 43.7387 123.308C43.7851 124.223 43.8448 125.111 43.9111 125.96C48.204 128.964 53.3418 130.524 58.5805 130.414C59.1042 130.414 59.6411 130.414 60.1847 130.374C68.1856 129.97 75.2651 126.47 80.9858 120.266C81.0521 119.106 81.0985 118.045 81.1183 117.163V117.031C76.4451 122.831 69.6638 127.895 60.0853 128.386Z" fill="#E73F3F"/>
<path d="M73.6278 90.3367C73.2633 90.0119 72.8854 89.6738 72.4612 89.3689C67.41 85.5839 63.4394 85.5839 62.3589 86.1208C60.2536 87.6616 58.26 89.3495 56.393 91.1719C56.2034 91.9852 56.2028 92.8312 56.3912 93.6448C56.5797 94.4584 56.9522 95.218 57.4802 95.8651C60.9072 100.194 72.0634 116.792 74.9801 113.186C77.8968 109.58 77.1411 99.6567 73.893 90.9929C73.8134 90.7676 73.7074 90.5488 73.6278 90.3367Z" fill="#FCE8E8" stroke="#E73F3F" stroke-linecap="round" stroke-linejoin="round"/>
<path d="M63.1014 109.395C63.1014 109.395 72.8456 130.143 74.8277 133.391C75.7011 134.934 76.7295 136.384 77.8968 137.719C77.8968 137.719 86.5142 140.616 93.9053 143.327C101.296 146.038 114.143 149.598 116.841 150.347C119.539 151.096 124.053 151.07 124.795 151.07C125.538 151.07 134.175 153.058 134.739 153.416C135.302 153.774 134.56 154.497 133.293 154.861C132.027 155.226 127.884 155.577 125.896 156.3C123.907 157.022 122.29 156.843 119.406 156.121C117.134 155.422 114.953 154.454 112.91 153.237C112.91 153.237 89.2386 151.587 83.6505 150.924C78.0625 150.261 71.7188 149.479 69.2197 146.595C64.2045 140.934 59.576 134.941 55.3656 128.658C51.9716 123.527 45.7605 116.322 48.1137 109.792" fill="white"/>
<path d="M63.1014 109.395C63.1014 109.395 72.8456 130.143 74.8277 133.391C75.7011 134.934 76.7295 136.384 77.8968 137.719C77.8968 137.719 86.5142 140.616 93.9053 143.327C101.296 146.038 114.143 149.598 116.841 150.347C119.539 151.096 124.053 151.07 124.795 151.07C125.538 151.07 134.175 153.058 134.738 153.416C135.302 153.774 134.56 154.497 133.293 154.861C132.027 155.226 127.884 155.577 125.896 156.3C123.907 157.022 122.29 156.843 119.406 156.121C117.134 155.422 114.953 154.454 112.91 153.237C112.91 153.237 89.2386 151.587 83.6505 150.924C78.0625 150.261 71.7188 149.479 69.2197 146.595C64.2045 140.934 59.576 134.941 55.3656 128.658C51.9716 123.527 45.7605 116.322 48.1137 109.792" stroke="#E73F3F" stroke-linecap="round" stroke-linejoin="round"/>
<path d="M124.749 151.069C124.026 151.069 119.519 151.069 116.794 150.347C114.07 149.624 101.223 146.032 93.8323 143.327C86.4412 140.622 77.8238 137.719 77.8238 137.719C76.6565 136.384 75.6282 134.934 74.7547 133.39C73.9394 132.065 71.8049 127.736 69.571 123.129C62.3788 125.012 58.7595 128.432 56.9763 131.084C60.7432 136.472 64.8132 141.642 69.1667 146.568C71.6922 149.452 78.0028 150.175 83.5975 150.897C89.1922 151.62 112.824 153.244 112.824 153.244C114.866 154.46 117.047 155.428 119.32 156.127C122.203 156.85 123.828 157.029 125.81 156.306C127.792 155.584 131.948 155.226 133.207 154.868C134.467 154.51 135.196 153.781 134.652 153.423C134.109 153.065 125.498 151.069 124.749 151.069Z" fill="white"/>
<path opacity="0.15" d="M124.749 151.069C124.026 151.069 119.519 151.069 116.794 150.347C114.07 149.624 101.223 146.032 93.8323 143.327C86.4412 140.622 77.8238 137.719 77.8238 137.719C76.6565 136.384 75.6282 134.934 74.7547 133.39C73.9394 132.065 71.8049 127.736 69.571 123.129C62.3788 125.012 58.7595 128.432 56.9763 131.084C60.7432 136.472 64.8132 141.642 69.1667 146.568C71.6922 149.452 78.0028 150.175 83.5975 150.897C89.1922 151.62 112.824 153.244 112.824 153.244C114.866 154.46 117.047 155.428 119.32 156.127C122.203 156.85 123.828 157.029 125.81 156.306C127.792 155.584 131.948 155.226 133.207 154.868C134.467 154.51 135.196 153.781 134.652 153.423C134.109 153.065 125.498 151.069 124.749 151.069Z" fill="#E73F3F"/>
<path d="M124.749 151.069C124.026 151.069 119.519 151.069 116.794 150.347C114.07 149.624 101.223 146.032 93.8323 143.327C86.4412 140.622 77.8238 137.719 77.8238 137.719C76.6565 136.384 75.6282 134.934 74.7547 133.39C73.9394 132.065 71.8049 127.736 69.571 123.129C62.3788 125.012 58.7595 128.432 56.9763 131.084C60.7432 136.472 64.8132 141.642 69.1667 146.568C71.6922 149.452 78.0028 150.175 83.5975 150.897C89.1922 151.62 112.824 153.244 112.824 153.244C114.866 154.46 117.047 155.428 119.32 156.127C122.203 156.85 123.828 157.029 125.81 156.306C127.792 155.584 131.948 155.226 133.207 154.868C134.467 154.51 135.196 153.781 134.652 153.423C134.109 153.065 125.498 151.069 124.749 151.069Z" stroke="#E73F3F" stroke-linecap="round" stroke-linejoin="round"/>
<path d="M77.1742 194.461C77.2538 191.333 77.5719 179.514 77.91 168.238C73.1312 170.104 68.1199 171.308 63.0152 171.818C52.4091 173.057 46.2974 170.492 43.2747 168.503C43.2747 168.947 43.2349 169.226 43.2349 169.285C43.2349 169.948 43.5199 190.166 43.5796 194.475L77.1742 194.461Z" fill="#FCE8E8" stroke="#E73F3F" stroke-linecap="round" stroke-linejoin="round"/>
<path d="M68.7226 192.957C67.0786 186.719 71.0559 178.764 65.3154 174.635" stroke="#E73F3F" stroke-linecap="round" stroke-linejoin="round"/>
<path d="M68.7225 178.605L76.107 171.513" stroke="#E73F3F" stroke-linecap="round" stroke-linejoin="round"/>
<path d="M50.2084 178.652L50.0161 192.957" stroke="#E73F3F" stroke-linecap="round" stroke-linejoin="round"/>
<path d="M50.2747 173.501L50.2416 176.113" stroke="#E73F3F" stroke-linecap="round" stroke-linejoin="round"/>
<path d="M79.8721 57.0336C82.8061 57.8114 85.3989 59.5414 87.2433 61.9521C88.4942 63.5529 89.3421 65.4307 89.7158 67.4275C90.5974 72.7968 87.5747 74.454 88.5492 76.8934C89.5236 79.3328 90.498 80.5989 89.7158 81.7722C88.9336 82.9455 86.5009 83.1377 86.1098 83.2371C85.7187 83.3366 84.9365 87.8176 83.3787 89.7731C81.821 91.7286 76.3522 89.4814 76.3522 89.4814C76.3522 89.4814 74.1117 93.2863 73.4289 94.5524C72.7462 95.8185 74.0918 103.428 73.1306 106.842C72.1695 110.256 69.9157 106.551 65.6202 101.188C61.3248 95.8252 59.3759 91.4303 59.5748 89.9653C59.7737 88.5004 63.1808 85.0866 63.7708 83.8205C64.3608 82.5544 64.6458 81.9644 64.3541 80.7977C64.0625 79.6311 60.6487 74.8318 60.6487 68.7002C60.6487 62.5686 65.5208 56.7021 71.964 56.2116C74.6275 56.0368 77.3014 56.3147 79.8721 57.0336Z" fill="white"/>
<path opacity="0.15" d="M79.8721 57.0336C82.8061 57.8114 85.3989 59.5414 87.2433 61.9521C88.4942 63.5529 89.3421 65.4307 89.7158 67.4275C90.5974 72.7968 87.5747 74.454 88.5492 76.8934C89.5236 79.3328 90.498 80.5989 89.7158 81.7722C88.9336 82.9455 86.5009 83.1377 86.1098 83.2371C85.7187 83.3366 84.9365 87.8176 83.3787 89.7731C81.821 91.7286 76.3522 89.4814 76.3522 89.4814C76.3522 89.4814 74.1117 93.2863 73.4289 94.5524C72.7462 95.8185 74.0918 103.428 73.1306 106.842C72.1695 110.256 69.9157 106.551 65.6202 101.188C61.3248 95.8252 59.3759 91.4303 59.5748 89.9653C59.7737 88.5004 63.1808 85.0866 63.7708 83.8205C64.3608 82.5544 64.6458 81.9644 64.3541 80.7977C64.0625 79.6311 60.6487 74.8318 60.6487 68.7002C60.6487 62.5686 65.5208 56.7021 71.964 56.2116C74.6275 56.0368 77.3014 56.3147 79.8721 57.0336Z" fill="#E73F3F"/>
<path d="M79.8721 57.0336C82.8061 57.8114 85.3989 59.5414 87.2433 61.9521C88.4942 63.5529 89.3421 65.4307 89.7158 67.4275C90.5974 72.7968 87.5747 74.454 88.5492 76.8934C89.5236 79.3328 90.498 80.5989 89.7158 81.7722C88.9336 82.9455 86.5009 83.1377 86.1098 83.2371C85.7187 83.3366 84.9365 87.8176 83.3787 89.7731C81.821 91.7286 76.3522 89.4814 76.3522 89.4814C76.3522 89.4814 74.1117 93.2863 73.4289 94.5524C72.7462 95.8185 74.0918 103.428 73.1306 106.842C72.1695 110.256 69.9157 106.551 65.6202 101.188C61.3248 95.8252 59.3759 91.4303 59.5748 89.9653C59.7737 88.5004 63.1808 85.0866 63.7708 83.8205C64.3608 82.5544 64.6458 81.9644 64.3541 80.7977C64.0625 79.6311 60.6487 74.8318 60.6487 68.7002C60.6487 62.5686 65.5208 56.7021 71.964 56.2116C74.6275 56.0368 77.3014 56.3147 79.8721 57.0336Z" stroke="#E73F3F" stroke-linecap="round" stroke-linejoin="round"/>
<path d="M81.0388 61.4815C83.3854 60.3281 85.0492 60.3612 86.1363 60.686C84.4096 58.934 82.2474 57.6733 79.8721 57.0336C77.3015 56.3147 74.6276 56.0368 71.964 56.2116C65.5209 56.7021 60.6487 62.5554 60.6487 68.7002C60.6487 74.8451 64.0625 79.6244 64.3542 80.7977C64.4588 81.1842 64.4836 81.5879 64.4271 81.9843C69.0673 82.9057 70.5852 80.5856 70.5852 80.5856C70.0484 80.653 69.5034 80.6102 68.9837 80.4598C68.4639 80.3093 67.9803 80.0544 67.5625 79.7106C66.1904 78.5373 66.1904 74.0496 67.8542 72.0014C69.518 69.9531 71.1686 72.7835 71.1686 74.4407C71.1686 76.0979 71.9508 77.4635 72.733 77.2712C73.5152 77.079 73.3163 75.2229 73.608 74.0496C73.8996 72.8764 77.3134 71.1264 78.0956 70.1519C78.8778 69.1775 77.7045 68.2959 76.4384 66.8375C75.1723 65.3792 76.2528 63.8215 81.0388 61.4815Z" fill="#E73F3F" stroke="#E73F3F" stroke-linecap="round" stroke-linejoin="round"/>
<path d="M70.393 80.8906C70.393 80.8906 70.393 83.6283 72.0568 85.3783" stroke="#E73F3F" stroke-linecap="round" stroke-linejoin="round"/>
<path d="M85.5861 75.952C84.7604 75.6023 83.8595 75.4678 82.9677 75.5609" stroke="#E73F3F" stroke-linecap="round" stroke-linejoin="round"/>
<path d="M87.0246 73.5988C87.0246 73.5988 85.5861 71.113 82.8352 73.0751" stroke="#E73F3F" stroke-linecap="round" stroke-linejoin="round"/>
<path d="M83.6506 84.5895C83.0527 84.6409 82.455 84.4879 81.9553 84.1556C81.4557 83.8233 81.0835 83.3313 80.8996 82.76" stroke="#E73F3F" stroke-linecap="round" stroke-linejoin="round"/>
<path d="M64.7255 112.894L63.4793 110.243C55.4651 110.382 50.7719 113.371 48.1204 116.209C48.4065 117.152 48.7656 118.072 49.1943 118.96C51.2823 116.248 55.7567 112.702 64.7255 112.894Z" fill="#E73F3F"/>
<path d="M67.5029 118.721L66.2567 116.109C58.8126 116.507 53.8078 119.251 50.7387 121.77C51.2027 122.539 51.6999 123.295 52.1971 124.031C55.0275 121.644 59.9527 118.86 67.5029 118.721Z" fill="#E73F3F"/>
<path d="M153.79 136.433C154.625 138.932 155.182 147.821 155.182 152.548C155.182 156.485 152.663 185.121 151.827 194.461H189.492C189.943 185.347 191.289 157.957 191.289 154.49C191.289 150.32 189.896 133.238 191.706 127.266C193.516 121.293 195.591 105.603 192.369 100.751C189.147 95.8982 177.123 93.1142 173.484 91.8613C169.844 90.6085 164.455 89.9191 161.817 91.1984C161.817 91.1984 154.598 95.2287 150.15 99.3916C145.702 103.554 143.767 109.951 144.595 115.089C145.424 120.226 152.954 133.934 153.79 136.433Z" fill="white" stroke="#E73F3F" stroke-linecap="round" stroke-linejoin="round"/>
<path d="M186.516 96.3754C184.892 95.6256 183.231 94.9618 181.538 94.3867C175.406 110.027 165.76 124.048 153.346 135.366C153.551 135.823 153.703 136.194 153.79 136.446C154.207 138.071 154.478 139.731 154.598 141.405C168.781 129.25 179.744 113.783 186.516 96.3754Z" fill="#E73F3F"/>
<path d="M193.861 114.465C194.186 111.155 194.124 107.818 193.675 104.522C185.939 117.588 172.562 137.514 155.168 153.111C155.122 154.483 154.95 157.161 154.691 160.555C171.621 146.542 185.011 128.426 193.861 114.465Z" fill="#E73F3F"/>
<path d="M189.492 194.461C189.81 187.972 190.586 172.228 191.004 162.438C172.675 165.944 159.789 162.61 154.671 160.814C153.889 171.135 152.424 187.76 151.827 194.461H189.492Z" fill="#E73F3F" stroke="#E73F3F" stroke-linecap="round" stroke-linejoin="round"/>
<path d="M166.563 107.73C171.593 107.73 175.671 103.786 175.671 98.9207C175.671 94.0553 171.593 90.1111 166.563 90.1111C161.533 90.1111 157.455 94.0553 157.455 98.9207C157.455 103.786 161.533 107.73 166.563 107.73Z" fill="#FCE8E8" stroke="#E73F3F" stroke-linecap="round" stroke-linejoin="round"/>
<path d="M158.238 87.8246C158.238 87.8246 159.762 93.2403 159.762 96.442C159.762 99.6437 163.236 107.002 168.93 103.667C174.624 100.333 171.707 92.6968 170.733 90.3303C170.041 88.5224 169.485 86.6657 169.069 84.7754C169.069 84.7754 167.259 88.0898 163.766 88.2489C161.912 88.3594 160.052 88.2167 158.238 87.8246Z" fill="white" stroke="#E73F3F" stroke-linecap="round" stroke-linejoin="round"/>
<path d="M148.844 68.1633C148.844 68.1633 147.883 70.5562 149.083 72.472C150.283 74.3877 151.927 77.0127 151.927 77.0127L151.688 66.4928C151.688 66.4928 149.322 64.5771 148.844 68.1633Z" fill="#E73F3F" stroke="#E73F3F" stroke-linecap="round" stroke-linejoin="round"/>
<path d="M151.927 74.6199C151.927 74.6199 150.011 75.3424 150.966 78.4447C151.92 81.5469 153.359 80.599 153.359 80.599L151.927 74.6199Z" fill="white" stroke="#E73F3F" stroke-linecap="round" stroke-linejoin="round"/>
<path d="M150.177 69.2174C150.177 69.2174 151.847 77.8348 152.828 82.1303C153.809 86.4257 159.079 90.3234 161.857 91.1587C164.634 91.9939 168.247 88.938 169.082 87.135C169.917 85.332 170.328 81.3017 170.328 81.3017C170.328 81.3017 173.384 80.0488 173.643 76.8538C173.901 73.6587 173.086 72.6909 171.422 72.2733L170.169 71.7165C170.169 71.7165 170.865 66.5792 169.062 63.3841C167.259 60.189 160.869 64.3585 157.535 65.3263C154.201 66.2941 149.759 66.0224 150.177 69.2174Z" fill="white" stroke="#E73F3F" stroke-linecap="round" stroke-linejoin="round"/>
<path d="M158.237 75.4683C158.237 75.4683 157.575 80.4664 158.509 80.884C159.444 81.3016 161.287 80.3271 161.704 80.1879" stroke="#E73F3F" stroke-linecap="round" stroke-linejoin="round"/>
<path d="M160.876 83.9729C160.876 83.9729 164.76 84.5297 166.291 80.0818" stroke="#E73F3F" stroke-linecap="round" stroke-linejoin="round"/>
<path d="M153.511 74.3546C153.821 73.8754 154.257 73.492 154.773 73.2473C155.288 73.0026 155.861 72.9063 156.428 72.9692" stroke="#E73F3F" stroke-linecap="round" stroke-linejoin="round"/>
<path d="M160.18 72.2733C160.18 72.2733 162.957 70.8812 164.621 72.4125" stroke="#E73F3F" stroke-linecap="round" stroke-linejoin="round"/>
<path d="M156.098 77.9609C156.477 77.8951 156.677 77.2277 156.546 76.4703C156.414 75.7128 156 75.1521 155.621 75.218C155.243 75.2838 155.042 75.9512 155.174 76.7086C155.306 77.4661 155.719 78.0268 156.098 77.9609Z" fill="#E73F3F"/>
<path d="M162.211 76.7141C162.59 76.6483 162.79 75.9809 162.659 75.2234C162.527 74.466 162.113 73.9053 161.734 73.9711C161.356 74.037 161.155 74.7044 161.287 75.4618C161.419 76.2193 161.832 76.7799 162.211 76.7141Z" fill="#E73F3F"/>
<path d="M166.013 65.4655C162.327 67.1954 158.461 68.5115 154.486 69.3897C148.374 70.6359 145.596 69.2505 145.868 66.1946C146.14 63.1388 154.061 56.4702 161.28 56.4702C168.499 56.4702 171.005 59.7846 171.422 63.278C171.65 66.2831 171.65 69.3012 171.422 72.3064L170.169 74.1094C170.169 74.1094 170.488 72.7041 168.499 71.5772C166.51 70.4503 165.039 68.3821 166.013 65.4655Z" fill="#E73F3F" stroke="#E73F3F" stroke-linecap="round" stroke-linejoin="round"/>
<path d="M204.665 75.3952C206.024 76.4359 204.427 80.7844 208.908 84.2711C219.222 92.2919 225.188 97.7209 226.288 109.639C227.495 122.632 220.515 127.683 222.682 132.012C224.85 136.34 227.733 141.391 223.16 145.269C218.586 149.147 211.135 152.488 204.884 143.347C198.633 134.206 195.259 114.001 192.614 102.911C189.969 91.8213 185.641 86.558 186.357 81.7455C187.059 77.1054 190.844 73.791 195.372 72.9889C197.003 72.7039 198.676 72.7712 200.279 73.1862C201.882 73.6012 203.377 74.3544 204.665 75.3952Z" fill="#E73F3F" stroke="#E73F3F" stroke-linecap="round" stroke-linejoin="round"/>
<path d="M192.243 121.578L172.967 135.678C172.967 135.678 142.096 146.708 140.28 147.271C138.464 147.835 129.807 149.366 127.99 150.34C126.174 151.315 122.687 157.745 122.124 159.283C122.007 159.497 121.962 159.745 121.997 159.987C122.032 160.229 122.144 160.454 122.318 160.627C122.491 160.8 122.715 160.912 122.957 160.947C123.2 160.982 123.447 160.938 123.662 160.82C124.079 160.396 128.13 156.485 129.389 156.346C130.649 156.207 131.762 156.068 131.762 156.068C131.762 156.068 128.547 158.865 128.408 159.7C128.269 160.535 128.971 160.257 129.807 159.839C130.642 159.422 133.857 158.302 135.11 156.068C136.363 153.834 137.483 152.574 139.577 151.739C141.672 150.904 169.009 144.978 173.901 144.142C178.793 143.307 196.393 132.734 197.235 132.595C198.076 132.456 194.901 121.578 192.243 121.578Z" fill="white" stroke="#E73F3F" stroke-linecap="round" stroke-linejoin="round"/>
<path d="M188.478 139.608C188.65 140.125 188.133 147.397 187.782 160.038C187.517 169.736 185.217 186.971 184.156 194.461H221.005C221.27 186.865 221.602 169.491 219.467 162.285C216.697 152.939 213.581 151.016 212.547 146.88C211.513 142.744 209.949 119.868 207.35 111.211C204.752 102.553 196.963 97.3565 195.75 95.454C194.537 93.5516 190.725 82.4683 190.725 82.4683L184.149 88.0099C184.149 88.0099 188.995 95.7987 189.691 98.2249C190.387 100.651 185.011 106.358 182.247 112.251C179.483 118.144 178.932 122.811 181.379 126.444C183.825 130.076 188.306 139.085 188.478 139.608Z" fill="#FCE8E8"/>
<path d="M194.112 175.185L200.151 176.51L206.19 175.185L212.229 176.51L218.268 175.185L221.065 175.794L221.005 174.429L218.268 173.826L212.229 175.151L206.19 173.826L200.151 175.151L194.112 173.826L188.08 175.151L186.629 174.833C186.582 175.277 186.536 175.715 186.483 176.159L188.08 176.51L194.112 175.185Z" fill="white"/>
<path d="M200.781 129.818L194.742 131.143L188.703 129.818L183.984 130.852L184.647 132.065L188.71 131.177L194.749 132.502L200.788 131.177L206.826 132.502L210.645 131.66C210.592 131.223 210.545 130.779 210.492 130.335L206.826 131.143L200.781 129.818Z" fill="white"/>
<path d="M194.112 185.28L200.151 186.606L206.19 185.28L212.229 186.606L218.268 185.28L221.191 185.943C221.191 185.499 221.191 185.048 221.191 184.617L218.261 183.955L212.222 185.28L206.183 183.955L200.145 185.28L194.106 183.955L188.074 185.28L185.462 184.704C185.409 185.154 185.349 185.592 185.296 186.029L188.074 186.639L194.112 185.28Z" fill="white"/>
<path d="M221.138 189.609L218.268 188.979L212.229 190.305L206.19 188.979L200.151 190.305L194.112 188.979L188.08 190.305L184.826 189.589C184.766 190.04 184.706 190.484 184.653 190.915L188.08 191.664L194.112 190.338L200.151 191.664L206.19 190.338L212.229 191.664L218.268 190.338L221.111 190.968C221.118 190.524 221.131 190.073 221.138 189.609Z" fill="white"/>
<path d="M180.477 116.872L182.664 117.349L188.703 116.023L194.742 117.349L200.781 116.023L206.82 117.349L208.629 116.951C208.55 116.507 208.47 116.069 208.391 115.625L206.82 115.97L200.781 114.644L194.742 115.97L188.703 114.644L182.664 115.97L180.875 115.579C180.729 116.025 180.596 116.456 180.477 116.872Z" fill="white"/>
<path d="M200.781 119.715L194.742 121.041L188.703 119.715L182.665 121.041L179.854 120.424C179.827 120.877 179.827 121.331 179.854 121.783L182.665 122.4L188.703 121.074L194.742 122.4L200.781 121.074L206.82 122.4L209.405 121.83C209.339 121.386 209.279 120.948 209.213 120.504L206.82 121.028L200.781 119.715Z" fill="white"/>
<path d="M200.781 124.766L194.742 126.092L188.703 124.766L182.664 126.092L180.941 125.714C181.074 125.96 181.219 126.205 181.378 126.443C181.538 126.682 181.73 126.98 181.915 127.285L182.664 127.451L188.703 126.125L194.742 127.451L200.781 126.125L206.82 127.451L210.055 126.742C210.002 126.298 209.942 125.86 209.889 125.416L206.82 126.079L200.781 124.766Z" fill="white"/>
<path d="M194.112 180.236L200.151 181.562L206.19 180.236L212.229 181.562L218.268 180.236L221.184 180.899V179.54L218.288 178.877L212.249 180.203L206.21 178.877L200.171 180.203L194.132 178.877L188.1 180.203L186.111 179.759L185.952 181.084L188.12 181.562L194.112 180.236Z" fill="white"/>
<path d="M188.478 139.608C188.65 140.125 188.133 147.397 187.782 160.038C187.517 169.736 185.217 186.971 184.156 194.461H221.005C221.27 186.865 221.602 169.491 219.467 162.285C216.697 152.939 213.581 151.016 212.547 146.88C211.513 142.744 209.949 119.868 207.35 111.211C204.752 102.553 196.963 97.3565 195.75 95.454C194.537 93.5516 190.725 82.4683 190.725 82.4683L184.149 88.0099C184.149 88.0099 188.995 95.7987 189.691 98.2249C190.387 100.651 185.011 106.358 182.247 112.251C179.483 118.144 178.932 122.811 181.379 126.444C183.825 130.076 188.306 139.085 188.478 139.608Z" stroke="#E73F3F" stroke-linecap="round" stroke-linejoin="round"/>
<path d="M184.143 128.426C184.143 128.426 186.37 132.887 193.808 131.15" stroke="#E73F3F" stroke-linecap="round" stroke-linejoin="round"/>
<path d="M204.46 157.168C204.46 157.168 193.31 170.797 188.352 181.694" stroke="#E73F3F" stroke-linecap="round" stroke-linejoin="round"/>
<path d="M192.568 168.324C192.568 168.324 187.855 176.995 186.602 182.443" stroke="#E73F3F" stroke-linecap="round" stroke-linejoin="round"/>
<path d="M186.271 110.906C189.87 108.917 194.464 100.3 196.466 98.7088L197.831 97.615C197.068 96.9645 196.371 96.2407 195.75 95.454C194.537 93.5516 190.725 82.4683 190.725 82.4683L184.149 88.0099C184.149 88.0099 188.995 95.7987 189.691 98.2249C190.301 100.366 186.184 105.079 183.308 110.203C183.646 111.151 184.441 111.92 186.271 110.906Z" fill="white" stroke="#E73F3F" stroke-linecap="round" stroke-linejoin="round"/>
<path d="M178.343 69.1378C177.575 70.9577 177.191 72.9166 177.216 74.8916C177.335 76.6416 177.713 78.027 177.01 79.7571C176.599 80.7515 175.207 82.0176 175.399 83.1643C175.572 84.1984 178.17 84.5497 178.17 84.5497C178.17 84.5497 180.769 92.6832 182.148 92.8556C183.526 93.0279 186.648 92.1927 190.626 88.8783C194.603 85.5639 189.764 73.6322 186.297 70.5233C182.83 67.4144 180.073 67.0564 178.343 69.1378Z" fill="white" stroke="#E73F3F" stroke-linecap="round" stroke-linejoin="round"/>
<path d="M179.522 79.9891C179.771 79.9891 179.973 79.4192 179.973 78.7163C179.973 78.0134 179.771 77.4436 179.522 77.4436C179.273 77.4436 179.072 78.0134 179.072 78.7163C179.072 79.4192 179.273 79.9891 179.522 79.9891Z" fill="#E73F3F"/>
<path d="M178.323 75.793C178.323 75.793 178.773 73.99 180.576 75.3423" stroke="#E73F3F" stroke-linecap="round" stroke-linejoin="round"/>
<path d="M179.224 86.293C179.224 86.293 180.424 86.598 181.776 84.9673" stroke="#E73F3F" stroke-linecap="round" stroke-linejoin="round"/>
<path d="M182.154 59.9569C182.154 59.9569 175.744 60.1359 174.703 64.2855C173.663 68.4351 178.343 72.081 181.63 73.8111C184.918 75.5412 187.861 78.312 187.861 81.2552C187.861 84.1984 188.04 87.6652 190.46 90.7807C192.879 93.8963 198.414 96.4947 202.756 96.3224C207.098 96.15 202.412 85.9616 204.831 78.67C207.251 71.3783 204.168 64.1264 199.289 61.0109C194.411 57.8954 182.154 59.9569 182.154 59.9569Z" fill="#E73F3F" stroke="#E73F3F" stroke-linecap="round" stroke-linejoin="round"/>
<path d="M221.29 122.824C221.232 123.733 221.09 124.633 220.866 125.516" stroke="white" stroke-linecap="round" stroke-linejoin="round"/>
<path d="M180.683 70.7156C181.876 72.7042 184.136 74.8254 188.385 76.0186C197.665 78.6701 201.199 85.0801 201.199 90.6019C201.199 96.1237 201.643 100.101 210.479 104.522C213.084 105.825 215.367 107.69 217.163 109.983C218.96 112.276 220.224 114.939 220.866 117.78" stroke="white" stroke-linecap="round" stroke-linejoin="round"/>
<path d="M179.324 66.2942C179.325 66.6791 179.363 67.0631 179.436 67.441" stroke="white" stroke-linecap="round" stroke-linejoin="round"/>
<path d="M191.699 66.2942C191.699 66.2942 202.75 71.8226 202.524 79.333C202.299 86.8434 202.968 93.9163 209.816 98.1123C216.663 102.308 223.736 104.966 226.169 113.358" stroke="white" stroke-linecap="round" stroke-linejoin="round"/>
<path d="M197.864 106.511C197.864 106.511 194.928 107.625 193.396 113.352C191.865 119.079 198.143 129.135 199.124 133.609C200.105 138.084 201.079 144.918 201.079 144.918C201.079 144.918 179.145 162.816 175.936 165.593C172.728 168.371 171.044 170.2 171.044 170.2C171.044 170.2 163.09 177.187 162.387 178.586C161.684 179.984 159.736 187.243 160.432 187.521C161.128 187.8 162.387 184.73 162.387 184.174C162.387 183.617 163.779 180.541 163.779 180.541C163.779 180.541 162.665 187.647 162.665 188.045C162.665 188.443 163.779 188.045 163.918 187.481C164.057 186.918 165.595 181.058 165.595 181.058C165.595 181.058 164.76 187.621 165.317 188.35C165.874 189.079 166.855 184.16 166.855 184.16L167.968 180.249C167.968 180.249 167.69 187.09 168.254 187.369C168.817 187.647 170.07 180.667 170.07 180.667C170.07 180.667 172.582 175.636 173.557 173.959C174.112 173.046 174.536 172.06 174.816 171.029C174.816 171.029 187.808 163.903 195.909 159.992C204.009 156.081 210.857 148.816 211.692 147.563C212.527 146.31 210.711 128.704 209.319 121.161C207.927 113.617 204.99 104.522 197.864 106.511Z" fill="white" stroke="#E73F3F" stroke-linecap="round" stroke-linejoin="round"/>
<path d="M152.484 97.509C152.484 97.509 147.486 100.91 143.488 104.138C139.491 107.366 140.088 113.736 140.088 115.135C140.088 116.534 139.889 122.93 139.889 122.93L136.886 129.327C136.886 129.327 132.292 133.53 131.291 134.531C130.291 135.532 124.497 146.92 124.497 146.92L123.098 148.909L130.715 149.89C133.558 146.719 136.704 143.833 140.108 141.272C145.086 137.666 149.275 127.723 149.481 126.497C150.326 123.147 150.922 119.739 151.264 116.302" fill="white"/>
<path d="M152.484 97.509C152.484 97.509 147.486 100.91 143.488 104.138C139.491 107.366 140.088 113.736 140.088 115.135C140.088 116.534 139.889 122.93 139.889 122.93L136.886 129.327C136.886 129.327 132.292 133.53 131.291 134.531C130.291 135.532 124.497 146.92 124.497 146.92L123.098 148.909L130.715 149.89C133.558 146.719 136.704 143.833 140.108 141.272C145.086 137.666 149.275 127.723 149.481 126.497C150.326 123.147 150.922 119.739 151.264 116.302" stroke="#E73F3F" stroke-linecap="round" stroke-linejoin="round"/>
<path d="M149.938 124.362C146.577 118.847 141.984 119.563 139.942 120.252C139.896 121.711 139.862 122.904 139.862 122.904L136.86 129.301C136.86 129.301 132.266 133.503 131.265 134.504C130.264 135.505 124.47 146.893 124.47 146.893L123.072 148.882L130.715 149.89C133.558 146.719 136.704 143.833 140.108 141.272C145.086 137.666 149.275 127.723 149.481 126.497C149.554 126.092 149.739 125.35 149.938 124.362Z" fill="white" stroke="#E73F3F" stroke-linecap="round" stroke-linejoin="round"/>
<path d="M127.347 144.295C127.347 144.295 122.382 148.352 121.382 149.638C120.381 150.924 119.598 158.487 119.996 159.037C120.394 159.587 123.171 161.066 124.365 159.773C125.558 158.48 129.926 152.249 129.926 152.249C129.926 152.249 126.612 156.731 128.978 156.479C131.345 156.227 132.704 152.581 134.096 150.924C135.488 149.267 135.289 149.081 134.096 146.688L132.909 144.295" fill="white"/>
<path d="M127.347 144.295C127.347 144.295 122.382 148.352 121.382 149.638C120.381 150.924 119.598 158.487 119.996 159.037C120.394 159.587 123.171 161.066 124.365 159.773C125.558 158.48 129.926 152.249 129.926 152.249C129.926 152.249 126.612 156.731 128.978 156.479C131.345 156.227 132.704 152.581 134.096 150.924C135.488 149.267 135.289 149.081 134.096 146.688L132.909 144.295" stroke="#E73F3F" stroke-linecap="round" stroke-linejoin="round"/>
<path d="M120.003 159.031C120.003 159.031 122.528 150.413 123.536 149.75" stroke="#E73F3F" stroke-linecap="round" stroke-linejoin="round"/>
<path d="M121.189 159.66C121.189 159.66 124.119 151.56 125.631 149.883" stroke="#E73F3F" stroke-linecap="round" stroke-linejoin="round"/>
<path d="M122.76 160.237C122.76 160.237 125.935 152.283 128.017 150.354" stroke="#E73F3F" stroke-linecap="round" stroke-linejoin="round"/>
<path d="M129.926 152.249C129.926 152.249 131.616 150.751 131.875 149.85L129.926 152.249Z" fill="white"/>
<path d="M129.926 152.249C129.926 152.249 131.616 150.751 131.875 149.85" stroke="#E73F3F" stroke-linecap="round" stroke-linejoin="round"/>
<path d="M7.59201 194.462H255.667" stroke="#E73F3F" stroke-linecap="round" stroke-linejoin="round"/>
</svg>
