<svg width="177" height="98" viewBox="0 0 177 98" fill="none" xmlns="http://www.w3.org/2000/svg">
<mask id="mask0_39_297" style="mask-type:luminance" maskUnits="userSpaceOnUse" x="0" y="0" width="177" height="98">
<path d="M174.193 86.71C171.924 90.5158 168.099 92.7453 164.983 94.0744C159.572 96.3501 152.638 97.5298 145.663 97.8329C132.916 98.5103 120.46 96.9825 110.183 95.8556C102.802 95.0458 95.4395 94.2877 88.106 94.1425C81.648 94.0429 71.6217 94.4997 55.3547 95.3356C49.7156 95.6132 37.0584 96.3683 24.948 95.8556C19.9664 95.6484 9.44387 95.0118 5.43709 92.3869C-7.08553 84.2296 5.57104 69.3986 8.29864 59.7925C8.93062 57.5764 9.09379 55.2491 8.39484 52.6667C6.2639 44.7555 5.65506 40.8366 5.42674 39.4892C3.50281 27.3858 2.95729 17.3107 12.5788 8.92323C24.9382 -1.85044 58.1596 -2.6347 86.1267 5.30933C119.089 14.6682 132.789 -1.21137 150.625 7.21864C176.819 19.6034 151.755 32.406 164.775 46.7C169.715 52.1297 172.961 58.0022 174.799 63.6791C177.707 72.6547 177.439 81.2973 174.193 86.71Z" fill="white"/>
</mask>
<g mask="url(#mask0_39_297)">
<g opacity="0.5">
<path d="M62.7424 65.3945C62.7037 65.4901 62.66 65.5836 62.6115 65.6746C62.5416 65.8155 62.4712 65.9617 62.4002 66.1132C61.9291 67.1484 61.5115 68.207 61.149 69.2848C61.1101 69.3972 61.0717 69.5114 61.0327 69.6268C60.6881 70.6531 60.3415 71.787 59.9928 73.0287C59.932 73.2474 59.8711 73.4702 59.8102 73.697C59.4534 75.0055 59.0956 76.4229 58.7368 77.9493C58.6869 78.1638 58.6363 78.3794 58.5864 78.5981C58.2345 80.1229 57.8828 81.7475 57.5313 83.4719C57.4869 83.6924 57.4418 83.9136 57.3961 84.1402C57.0747 85.7451 56.7542 87.4289 56.4348 89.1914C56.4159 89.2989 56.3958 89.407 56.3739 89.5152C56.3544 89.6275 56.3337 89.7399 56.313 89.8529L56.3094 89.8693C56.0078 91.5557 55.7084 93.3097 55.4113 95.1313C55.3825 95.3059 55.3539 95.4812 55.3255 95.6574C55.3194 95.6969 55.3127 95.737 55.3066 95.7789C55.3017 95.8081 55.2975 95.836 55.2932 95.8645C55.1032 97.039 54.9145 98.2402 54.727 99.4681C54.635 99.5021 54.5443 99.538 54.4518 99.5726C54.6458 98.3018 54.8406 97.0591 55.0363 95.8445C55.0442 95.7977 55.0521 95.7503 55.0588 95.7042L55.088 95.5268C55.1286 95.2882 55.1674 95.0505 55.2043 94.8136C55.4844 93.1054 55.7667 91.4559 56.0512 89.8651C56.1157 89.5006 56.1807 89.1407 56.246 88.7856C56.5379 87.1875 56.8307 85.654 57.1246 84.1851C57.2058 83.789 57.2851 83.3978 57.3626 83.0115C57.6874 81.4442 58.0105 79.9589 58.3319 78.5556C58.3417 78.5155 58.3508 78.4748 58.3599 78.4341C58.3636 78.4189 58.3666 78.4031 58.3709 78.3879C58.4232 78.1626 58.4756 77.9402 58.5274 77.7197C58.8768 76.2411 59.2257 74.8641 59.574 73.5888L59.6221 73.4133C59.6809 73.2002 59.7398 72.9901 59.7986 72.7827C60.1233 71.6325 60.448 70.5753 60.7728 69.611C60.8945 69.2538 61.0108 68.9112 61.1308 68.5783C61.4839 67.5954 61.8346 66.7304 62.1816 65.9892C62.2486 65.8471 62.3143 65.7098 62.3807 65.5762C62.4416 65.4547 62.4842 65.369 62.5025 65.3259C62.5136 65.2936 62.5371 65.2672 62.5678 65.2522C62.5986 65.2373 62.634 65.2352 62.6663 65.2463C62.6985 65.2574 62.7251 65.2809 62.7401 65.3115C62.755 65.3422 62.7572 65.3775 62.746 65.4097L62.7424 65.3945Z" fill="#8BBAFF"/>
<path d="M64.6419 64.3085C64.3174 64.9208 62.4221 66.2379 62.2467 66.1455C62.0714 66.0532 62.0933 63.7484 62.4178 63.1354C62.5745 62.8425 62.8411 62.6234 63.1593 62.5262C63.4774 62.429 63.8213 62.4615 64.1154 62.6167C64.4096 62.7718 64.6302 63.037 64.7289 63.3541C64.8276 63.6712 64.7963 64.0144 64.6419 64.3085Z" fill="#8BBAFF"/>
<path d="M60.9408 66.5736C61.2452 67.2151 61.1533 69.5716 60.9694 69.6572C60.7855 69.7429 58.9128 68.3062 58.6108 67.6641C58.4654 67.3558 58.4488 67.0025 58.5645 66.682C58.6803 66.3615 58.9189 66.0999 59.2278 65.9549C59.5368 65.8099 59.8909 65.7933 60.2121 65.9088C60.5334 66.0243 60.7955 66.2623 60.9408 66.5706V66.5736Z" fill="#8BBAFF"/>
<path d="M63.9753 70.2228C63.2806 70.3717 60.9999 69.7545 60.9572 69.5546C60.9146 69.3548 62.7399 67.8591 63.4346 67.7103C63.7657 67.6455 64.109 67.713 64.3907 67.8982C64.6723 68.0835 64.8699 68.3716 64.9407 68.7007C65.0116 69.0298 64.9501 69.3735 64.7696 69.6579C64.589 69.9422 64.3038 70.1444 63.9753 70.221V70.2228Z" fill="#8BBAFF"/>
<path d="M56.6472 79.0384C57.267 80.0553 57.5453 84.0033 57.2561 84.1795C56.9669 84.3557 53.5787 82.2963 52.9583 81.2794C52.8063 81.0375 52.7041 80.768 52.6574 80.4864C52.6107 80.2048 52.6205 79.9167 52.6863 79.6389C52.7521 79.3611 52.8725 79.0992 53.0406 78.8682C53.2087 78.6372 53.4211 78.4419 53.6654 78.2935C53.9098 78.1451 54.1813 78.0466 54.4641 78.0037C54.747 77.9608 55.0355 77.9744 55.313 78.0437C55.5905 78.113 55.8515 78.2367 56.0807 78.4074C56.31 78.5782 56.503 78.7926 56.6485 79.0384H56.6472Z" fill="#8BBAFF"/>
<path d="M62.3728 84.5804C61.2403 84.954 57.3194 84.3374 57.2153 84.0136C57.1112 83.6899 59.8826 80.8626 61.0151 80.4903C61.5569 80.3181 62.1449 80.3661 62.6515 80.6238C63.1581 80.8814 63.5424 81.328 63.7211 81.8666C63.8998 82.4052 63.8585 82.9924 63.6061 83.5008C63.3536 84.0092 62.9105 84.3978 62.3728 84.5822V84.5804Z" fill="#8BBAFF"/>
<path d="M54.2277 83.8595C55.242 84.9068 56.6406 89.5443 56.341 89.8334C56.0415 90.1226 51.4423 88.5729 50.428 87.525C49.9406 87.0223 49.6734 86.3469 49.6851 85.6476C49.6968 84.9483 49.9865 84.2822 50.4904 83.796C50.9942 83.3097 51.6711 83.0431 52.372 83.0548C53.0729 83.0665 53.7404 83.3555 54.2277 83.8582V83.8595Z" fill="#8BBAFF"/>
<path d="M62.3028 91.0274C60.8775 91.3402 56.1864 90.0955 56.0969 89.6909C56.0074 89.2863 59.7414 86.1906 61.1673 85.8778C61.5075 85.8001 61.8597 85.7904 62.2036 85.8492C62.5476 85.908 62.8765 86.0343 63.1713 86.2206C63.4661 86.4069 63.721 86.6497 63.9213 86.9348C64.1216 87.2199 64.2633 87.5418 64.3383 87.8819C64.4132 88.2219 64.42 88.5734 64.3581 88.9161C64.2962 89.2588 64.1668 89.5858 63.9776 89.8784C63.7884 90.1709 63.5429 90.4232 63.2555 90.6206C62.968 90.818 62.6442 90.9567 62.3028 91.0286V91.0274Z" fill="#8BBAFF"/>
<path d="M53.1738 89.8358C54.1888 90.8831 55.5873 95.5206 55.2877 95.8098C54.9882 96.0989 50.389 94.5498 49.3741 93.5013C49.1328 93.2524 48.943 92.9585 48.8155 92.6363C48.688 92.3142 48.6254 91.9702 48.6312 91.6239C48.637 91.2776 48.7111 90.9359 48.8493 90.6182C48.9874 90.3005 49.187 90.0131 49.4365 89.7723C49.686 89.5315 49.9805 89.3422 50.3034 89.215C50.6262 89.0878 50.971 89.0253 51.3181 89.0311C51.6651 89.0369 52.0076 89.1108 52.326 89.2487C52.6444 89.3865 52.9325 89.5856 53.1738 89.8346V89.8358Z" fill="#8BBAFF"/>
<path d="M61.2495 97.0037C59.8242 97.3165 55.1331 96.0718 55.0436 95.6672C54.9541 95.2627 58.6881 92.1669 60.114 91.8541C60.4542 91.7764 60.8064 91.7667 61.1503 91.8255C61.4943 91.8844 61.8232 92.0106 62.118 92.1969C62.4128 92.3832 62.6677 92.626 62.868 92.9111C63.0683 93.1962 63.21 93.5181 63.285 93.8582C63.3599 94.1982 63.3667 94.5498 63.3048 94.8924C63.2429 95.2351 63.1136 95.5621 62.9243 95.8547C62.7351 96.1473 62.4897 96.3995 62.2022 96.5969C61.9147 96.7943 61.5909 96.933 61.2495 97.0049V97.0037Z" fill="#8BBAFF"/>
<path d="M52.951 100.15C51.9355 99.085 50.6051 97.8415 50.0736 97.6112C49.4689 97.3522 48.789 97.3277 48.1671 97.5424C47.5451 97.7571 47.0259 98.1956 46.7108 98.7721C46.3958 99.3486 46.3076 100.022 46.4636 100.66C46.6196 101.298 47.0085 101.854 47.5542 102.221C49.4812 101.48 51.2761 100.789 52.951 100.15Z" fill="#8BBAFF"/>
<path d="M59.1788 97.7861L58.1073 98.1874C58.2726 98.0787 58.4492 97.988 58.6339 97.917C58.8104 97.8542 58.9931 97.8104 59.1788 97.7861Z" fill="#8BBAFF"/>
<path d="M59.6214 70.4518C59.9258 71.1043 59.8376 73.4983 59.6513 73.5852C59.4649 73.6721 57.5611 72.2123 57.2543 71.5605C57.1156 71.2486 57.1049 70.8948 57.2245 70.5751C57.3441 70.2554 57.5844 69.9952 57.894 69.8502C58.2036 69.7052 58.5578 69.687 58.8807 69.7995C59.2036 69.9119 59.4695 70.1461 59.6214 70.4518Z" fill="#8BBAFF"/>
<path d="M62.6188 74.217C61.9125 74.3682 59.5953 73.7407 59.552 73.5396C59.5088 73.3386 61.3633 71.8174 62.0696 71.6662C62.4087 71.5937 62.7628 71.6585 63.0539 71.8465C63.3451 72.0345 63.5495 72.3302 63.6221 72.6685C63.6948 73.0069 63.6298 73.3601 63.4414 73.6506C63.253 73.9412 62.9566 74.1451 62.6176 74.2176L62.6188 74.217Z" fill="#8BBAFF"/>
<path d="M58.0019 74.1127C58.5121 75.0002 58.6637 78.4003 58.4098 78.5473C58.156 78.6943 55.2901 76.8463 54.7799 75.9588C54.6534 75.7475 54.5703 75.5131 54.5355 75.2694C54.5006 75.0257 54.5149 74.7775 54.5772 74.5393C54.6396 74.3011 54.7489 74.0778 54.8988 73.8822C55.0487 73.6866 55.2361 73.5228 55.4501 73.4003C55.6641 73.2778 55.9004 73.1991 56.1453 73.1687C56.3901 73.1383 56.6386 73.1569 56.8761 73.2234C57.1137 73.2899 57.3356 73.4029 57.5289 73.5559C57.7222 73.7089 57.883 73.8988 58.0019 74.1145V74.1127Z" fill="#8BBAFF"/>
<path d="M62.7192 79.3969C61.7165 79.6119 58.4245 78.7207 58.363 78.4352C58.3015 78.1497 60.9365 75.9883 61.9393 75.7732C62.1778 75.7221 62.424 75.7184 62.6639 75.7623C62.9038 75.8061 63.1327 75.8967 63.3375 76.0288C63.5423 76.1609 63.7191 76.332 63.8577 76.5322C63.9962 76.7325 64.0939 76.958 64.1451 77.196C64.1963 77.4339 64.2001 77.6796 64.1561 77.9189C64.1122 78.1583 64.0214 78.3867 63.889 78.5911C63.7566 78.7954 63.5851 78.9718 63.3844 79.11C63.1837 79.2483 62.9577 79.3458 62.7192 79.3969Z" fill="#8BBAFF"/>
</g>
<path d="M173.229 108.752C173.24 108.753 173.251 108.753 173.261 108.752C173.302 108.745 173.339 108.722 173.363 108.688C173.387 108.653 173.397 108.611 173.39 108.57C169.294 85.8863 165.055 69.7175 161.454 63.0432C161.374 62.8949 161.316 62.788 161.295 62.7345C161.279 62.6968 161.248 62.6668 161.21 62.651C161.172 62.6351 161.129 62.6346 161.091 62.6495C161.052 62.6644 161.021 62.6936 161.003 62.7309C160.986 62.7683 160.984 62.8109 160.997 62.85C161.049 62.9678 161.107 63.0828 161.172 63.1944C164.757 69.8403 168.984 85.975 173.076 108.627C173.083 108.662 173.103 108.693 173.13 108.716C173.158 108.739 173.193 108.752 173.229 108.752Z" fill="#89B4FD"/>
<path d="M158.578 61.5667C159.009 62.3188 161.432 63.8855 161.647 63.7628C161.862 63.6401 161.739 60.7618 161.308 60.0098C161.206 59.8309 161.069 59.6739 160.906 59.5478C160.742 59.4217 160.556 59.3289 160.357 59.2747C160.157 59.2205 159.949 59.206 159.745 59.232C159.54 59.258 159.342 59.324 159.163 59.4263C158.984 59.5285 158.826 59.665 158.7 59.8279C158.573 59.9908 158.48 60.1769 158.426 60.3757C158.372 60.5744 158.357 60.7819 158.383 60.9863C158.409 61.1906 158.476 61.3879 158.578 61.5667Z" fill="#89B4FD"/>
<path d="M163.295 64.2422C162.945 65.0568 163.153 67.9964 163.387 68.0966C163.62 68.1969 165.901 66.3228 166.248 65.5088C166.412 65.1185 166.415 64.6795 166.256 64.2873C166.097 63.8951 165.789 63.5814 165.399 63.4144C165.009 63.2475 164.57 63.2408 164.175 63.3958C163.78 63.5508 163.463 63.855 163.292 64.2422H163.295Z" fill="#89B4FD"/>
<path d="M159.657 68.9253C160.531 69.0826 163.355 68.217 163.4 67.9679C163.445 67.7188 161.102 65.9237 160.228 65.7664C159.81 65.6955 159.381 65.792 159.034 66.035C158.687 66.278 158.45 66.6478 158.375 67.064C158.3 67.4802 158.393 67.9093 158.633 68.2578C158.873 68.6063 159.241 68.8462 159.657 68.9253Z" fill="#89B4FD"/>
<path d="M169.179 79.6383C168.448 80.9341 168.263 85.8777 168.631 86.0867C168.999 86.2957 173.148 83.5809 173.88 82.2851C174.232 81.6628 174.321 80.9265 174.129 80.2383C173.937 79.5501 173.478 78.9663 172.855 78.6153C172.231 78.2643 171.493 78.1749 170.803 78.3668C170.114 78.5586 169.528 79.016 169.177 79.6383H169.179Z" fill="#89B4FD"/>
<path d="M162.26 86.7991C163.69 87.2189 168.559 86.2846 168.679 85.877C168.8 85.4693 165.216 82.0498 163.785 81.6307C163.101 81.4404 162.37 81.5261 161.75 81.8693C161.129 82.2125 160.669 82.7856 160.469 83.4647C160.268 84.1438 160.344 84.8743 160.679 85.4983C161.014 86.1223 161.582 86.5896 162.26 86.7991Z" fill="#89B4FD"/>
<path d="M172.402 85.5612C171.178 86.9111 169.624 92.7635 170.011 93.1122C170.397 93.4609 176.078 91.3347 177.302 89.9849C177.598 89.6648 177.828 89.2892 177.978 88.88C178.128 88.4707 178.195 88.0359 178.175 87.6007C178.155 87.1654 178.049 86.7384 177.863 86.3442C177.677 85.9501 177.415 85.5966 177.091 85.3043C176.767 85.012 176.389 84.7866 175.977 84.6412C175.565 84.4958 175.129 84.4332 174.693 84.4571C174.257 84.481 173.83 84.5909 173.437 84.7804C173.044 84.9699 172.692 85.2353 172.402 85.5612Z" fill="#89B4FD"/>
<path d="M162.612 94.8501C164.406 95.1824 170.214 93.4328 170.309 92.9219C170.404 92.411 165.61 88.6993 163.817 88.3658C162.955 88.2064 162.065 88.395 161.343 88.8901C160.621 89.3852 160.125 90.1463 159.966 91.0059C159.806 91.8656 159.995 92.7533 160.491 93.4739C160.987 94.1945 161.75 94.6888 162.612 94.8483V94.8501Z" fill="#89B4FD"/>
<path d="M173.967 92.9846C172.743 94.3344 171.189 100.187 171.575 100.536C171.961 100.884 177.643 98.7581 178.867 97.4076C179.455 96.7593 179.761 95.9045 179.717 95.0314C179.673 94.1582 179.283 93.3381 178.634 92.7516C177.984 92.1651 177.127 91.8601 176.252 91.9038C175.377 91.9475 174.555 92.3362 173.967 92.9846Z" fill="#89B4FD"/>
<path d="M164.176 102.276C165.97 102.608 171.779 100.858 171.874 100.347C171.969 99.8365 167.175 96.1254 165.381 95.7913C164.519 95.6319 163.629 95.8207 162.906 96.3161C162.184 96.8115 161.688 97.573 161.529 98.4329C161.369 99.2929 161.558 100.181 162.055 100.902C162.551 101.622 163.314 102.117 164.176 102.276Z" fill="#89B4FD"/>
<path d="M165.106 69.0332C164.75 69.8606 164.963 72.8476 165.199 72.949C165.435 73.0505 167.753 71.1472 168.109 70.3198C168.194 70.1231 168.239 69.9116 168.242 69.6975C168.245 69.4834 168.205 69.2708 168.125 69.0719C168.046 68.873 167.928 68.6918 167.778 68.5384C167.628 68.3851 167.45 68.2626 167.252 68.1782C167.055 68.0937 166.843 68.0488 166.629 68.046C166.414 68.0433 166.201 68.0827 166.002 68.1621C165.802 68.2415 165.621 68.3593 165.467 68.5088C165.313 68.6582 165.191 68.8364 165.106 69.0332Z" fill="#89B4FD"/>
<path d="M161.518 73.8611C162.406 74.0209 165.275 73.1412 165.321 72.8891C165.367 72.637 162.987 70.8121 162.098 70.6524C161.672 70.5756 161.232 70.671 160.876 70.9177C160.52 71.1643 160.277 71.542 160.2 71.9676C160.123 72.3931 160.219 72.8318 160.466 73.187C160.713 73.5422 161.092 73.7849 161.518 73.8617V73.8611Z" fill="#89B4FD"/>
<path d="M167.282 73.5421C166.681 74.6727 166.633 78.9268 166.957 79.0975C167.281 79.2682 170.783 76.8438 171.384 75.7133C171.672 75.1706 171.733 74.5357 171.552 73.9484C171.372 73.361 170.965 72.8693 170.421 72.5814C169.877 72.2935 169.241 72.233 168.652 72.4131C168.063 72.5933 167.571 72.9994 167.282 73.5421Z" fill="#89B4FD"/>
<path d="M161.608 80.3375C162.868 80.5647 166.948 79.3133 167.009 78.9554C167.069 78.5976 163.692 76.0049 162.43 75.7777C161.824 75.6687 161.199 75.8044 160.693 76.1549C160.187 76.5054 159.842 77.042 159.733 77.6466C159.623 78.2513 159.759 78.8745 160.111 79.3791C160.462 79.8837 161 80.2285 161.606 80.3375H161.608Z" fill="#89B4FD"/>
<path d="M40.9787 76.7521C40.9787 76.7521 40.7297 77.2302 40.6134 77.3675C40.2597 77.7927 39.1138 79.2543 35.8742 80.6746C35.5144 80.8326 35.1905 81.0434 34.858 81.2049C32.2333 82.4807 32.6553 82.7139 31.0449 84.5661C30.9788 84.6713 30.9245 84.7833 30.8829 84.9003C30.6297 85.5077 30.1371 86.8825 29.4625 88.6861C28.7977 90.4624 27.9575 92.6554 26.9955 94.9431C26.8124 95.3805 26.6253 95.8284 26.4341 96.2869C20.9722 96.4825 15.9785 96.4873 11.6552 96.2869C13.0098 93.9961 14.3225 91.7739 15.5298 89.7303C16.8583 87.479 17.9877 85.5575 18.9101 83.9848C20.4791 81.3082 21.4471 79.6413 21.7759 79.08C22.2216 78.3188 23.0021 76.1361 23.8807 73.7038C25.0703 70.4064 26.4408 66.6497 27.4004 65.3521C27.7888 64.8279 28.5967 64.3255 29.5496 63.8705C30.335 63.4951 32.3989 64.0758 34.5092 63.15C35.8383 62.5668 38.0277 65.4098 37.736 66.513C37.7362 66.5165 37.7362 66.5199 37.736 66.5233C37.6179 66.9723 37.5089 67.3908 37.4158 67.759C37.241 68.4466 37.1211 68.9581 37.0931 69.1622C37.0877 69.1915 37.0864 69.2213 37.0894 69.2509C37.1077 69.3366 37.126 69.4216 37.1449 69.5055C37.2149 69.8305 37.2818 70.1397 37.3433 70.4282C37.3433 70.4386 37.3476 70.4489 37.3494 70.4592C37.3799 70.6032 37.4103 70.7417 37.4371 70.8741C37.4426 70.8978 37.4468 70.9215 37.4523 70.9452C37.571 71.5035 37.6618 71.9445 37.7159 72.2051C37.7208 72.2258 37.7245 72.2458 37.7281 72.2659C37.7555 72.4007 37.7707 72.473 37.7707 72.473C37.7707 72.473 38.5013 72.2106 39.182 72.425C39.4101 72.4945 39.617 72.6198 39.7842 72.7895C39.8335 72.8393 39.8793 72.8925 39.9212 72.9487C39.9632 73.0052 40.1099 73.2591 40.3029 73.612L40.3139 73.6327C40.8904 74.6909 41.2119 76.551 40.9787 76.7521Z" fill="#FFA089"/>
<path d="M29.0692 76.5188L29.0571 76.4064C29.065 76.4064 29.8333 76.3134 30.6224 75.4879C31.353 74.7224 32.2517 73.1545 32.3795 70.0278L32.4928 70.0327C32.4209 71.7816 32.0513 74.1636 30.6973 75.5735C29.8802 76.4252 29.1021 76.5188 29.0692 76.5188Z" fill="#E87765"/>
<path d="M17.1432 85.0271C17.3204 84.7969 20.8858 80.6089 20.8858 80.6089L31.8547 85.6698L29.6458 92.0235L17.1432 85.0271Z" fill="white"/>
<path d="M29.2738 88.5675C28.3605 88.0378 27.043 87.7001 25.3669 87.6563C21.9866 87.5646 21.0471 85.453 18.9132 83.9859C18.3226 83.5754 17.6748 83.2539 16.9904 83.0316C16.2769 82.8001 15.5584 83.1761 14.8242 83.978C13.0415 85.9262 10.608 91.5169 8.39423 96.0839C9.63504 96.1817 10.7614 96.2437 11.66 96.2856C17.4172 96.5577 23.3297 96.4259 28.106 96.2248C29.0394 94.4832 30.0768 92.5757 30.3734 92.018C31.4096 90.0686 29.9082 88.9393 29.2738 88.5675Z" fill="#333333"/>
<path d="M32.3886 89.0179C32.6652 89.0619 32.9478 89.0512 33.2203 88.9862C33.4927 88.9211 33.7497 88.8032 33.9764 88.639C34.2031 88.4748 34.3951 88.2676 34.5415 88.0293C34.6879 87.791 34.7857 87.5262 34.8294 87.2501L39.8785 55.5335C39.9227 55.2575 39.9119 54.9755 39.8467 54.7037C39.7816 54.4318 39.6633 54.1755 39.4988 53.9493C39.3342 53.7231 39.1266 53.5315 38.8877 53.3854C38.6489 53.2394 38.3835 53.1418 38.1068 53.0981C37.8302 53.0541 37.5476 53.0648 37.2751 53.1299C37.0027 53.1949 36.7457 53.3129 36.519 53.477C36.2923 53.6412 36.1003 53.8484 35.9539 54.0867C35.8075 54.325 35.7097 54.5898 35.666 54.8659L30.6169 86.5825C30.5727 86.8585 30.5835 87.1405 30.6487 87.4123C30.7138 87.6842 30.8321 87.9405 30.9966 88.1667C31.1612 88.3929 31.3688 88.5845 31.6077 88.7306C31.8465 88.8766 32.1119 88.9743 32.3886 89.0179Z" fill="#080435"/>
<path d="M23.8819 73.7033C27.0887 73.4694 33.3762 68.2329 33.876 66.1972C34.2127 64.8286 36.7156 62.9636 37.7939 62.313C40.1178 60.9109 41.3099 60.3478 41.5541 58.9549C41.6917 58.1688 41.1029 57.8614 40.6165 57.8693C40.1702 57.8754 39.5644 58.1487 38.7705 58.5655C38.6085 58.6511 35.3543 59.6067 35.1783 59.7021C33.1825 60.7779 28.2862 63.8791 28.2862 63.8791C26.3995 65.4294 23.8819 73.7033 23.8819 73.7033Z" fill="#FFA089"/>
<path d="M38.7704 58.5653C38.8124 58.7623 38.911 58.9428 39.0542 59.0847C39.484 59.5263 40.7017 58.7002 40.8569 58.5623C40.9641 58.4675 40.7553 58.0921 40.6134 57.8691C40.1702 57.8752 39.5644 58.1486 38.7704 58.5653Z" fill="#FFB0A1"/>
<path d="M27.1234 85.2506C27.1668 84.983 26.9845 84.731 26.7163 84.6877C26.4481 84.6444 26.1955 84.8262 26.1521 85.0938C26.1087 85.3614 26.291 85.6135 26.5592 85.6568C26.8274 85.7001 27.08 85.5182 27.1234 85.2506Z" fill="#333333"/>
<path d="M46.093 69.7859L46.2373 69.2677C46.5314 68.255 45.2418 67.3201 43.4062 66.8949L38.9361 65.8652C37.0536 65.4296 35.9528 65.6374 35.4206 66.5875C35.3191 66.784 35.2547 66.9976 35.2307 67.2174C35.1266 68.2793 35.7744 69.1182 37.6563 69.5544L42.3182 70.6546C44.152 71.0798 45.8008 70.7985 46.093 69.7859Z" fill="#FFA089"/>
<path d="M44.6604 73.7081L44.8528 73.1006C45.1944 72.0217 44.0089 71.0255 42.2701 70.5577L37.6746 69.3221C35.8913 68.8428 34.438 69.0548 33.8967 70.0911C33.7905 70.3025 33.7221 70.5307 33.6946 70.7655C33.557 71.9087 34.6212 72.8491 36.4045 73.3284L41.0001 74.564C42.7389 75.0348 44.3182 74.787 44.6604 73.7081Z" fill="#FFA089"/>
<path d="M43.2314 76.9829L43.3398 76.4969C43.5499 75.5535 42.6811 74.7352 41.4348 74.4242L38.8478 73.9066C37.8396 73.6897 36.519 73.5853 36.1312 74.7917C35.6636 76.2497 37.2679 77.1257 37.8633 77.2295L40.6524 77.9287C41.8987 78.2428 43.0202 77.9263 43.2314 76.9829Z" fill="#FFA089"/>
<path d="M35.873 67.0573C36.0715 66.2451 36.7863 66.1637 37.4834 66.3447L38.368 66.5725C38.7023 66.6588 38.9032 66.9528 38.8149 67.2262L38.499 68.1981C38.4009 68.5019 38.0174 68.6708 37.6466 68.5754L36.6396 68.3178C36.0429 68.1641 35.7841 67.42 35.873 67.0573Z" fill="#FFB0A1"/>
<path d="M45.6893 66.2456C45.7161 66.1521 45.8653 65.5513 45.8653 65.5513C46.0601 64.6838 44.952 64.0484 43.4975 63.7975L40.239 63.2368C38.7461 62.9798 37.8195 62.8286 37.3531 63.6517C37.2313 63.8704 37.1364 64.3612 37.1382 64.6279C37.1473 65.7633 38.2517 66.0251 39.7452 66.2833L42.7742 67.0178C44.2306 67.2686 45.4421 67.1028 45.6893 66.2456Z" fill="#FFA089"/>
<path d="M34.2815 70.7306L34.2949 70.6535C34.4166 69.9543 35.0091 69.5053 35.6136 69.6554L36.4088 69.8528C36.6974 69.9239 36.8861 70.2556 36.8283 70.5891L36.6292 71.7433C36.5683 72.1132 36.2511 72.3508 35.9314 72.2718L35.031 72.0483C34.5128 71.9182 34.1755 71.326 34.2815 70.7306Z" fill="#FFB0A1"/>
<path d="M36.6207 74.9309L36.614 74.9528C36.441 75.522 36.7272 76.107 37.2496 76.2522L38.1555 76.5043C38.4046 76.5735 38.6761 76.4083 38.7589 76.1398L39.031 75.2425C39.1224 74.9388 38.9702 74.6314 38.695 74.5549L37.6977 74.2772C37.2526 74.1497 36.768 74.4455 36.6207 74.9309Z" fill="#FFB0A1"/>
<path d="M37.4395 64.3262L37.4767 64.1816C37.6039 63.6829 38.1616 63.3609 38.7157 63.4666L39.3477 63.5881C39.6119 63.6385 39.7787 63.8742 39.7184 64.1124L39.4859 65.0236C39.4183 65.2879 39.1206 65.4579 38.8295 65.4021L38.0989 65.2636C37.6301 65.173 37.3312 64.7515 37.4395 64.3262Z" fill="#FFB0A1"/>
<path d="M36.3377 69.0133L36.3065 69.1348L42.9343 70.8315L42.9655 70.71L36.3377 69.0133Z" fill="#E87765"/>
<path d="M38.0215 65.4276L37.9938 65.5505L44.4755 67.0024L44.5031 66.8795L38.0215 65.4276Z" fill="#E87765"/>
<path d="M37.755 73.6304L37.7292 73.7532L42.7598 74.8045L42.7856 74.6818L37.755 73.6304Z" fill="#E87765"/>
<path d="M39.2131 77.6336C38.8253 77.5364 37.3361 77.1057 37.3208 77.1015L37.3555 76.98C37.3708 76.9842 38.8582 77.4143 39.2429 77.5109L39.2131 77.6336Z" fill="#E87765"/>
<path d="M57.3944 29.064L25.3024 24.5467C23.8241 24.3386 22.4566 25.3657 22.2481 26.8407L18.9857 49.914C18.7772 51.389 19.8065 52.7534 21.2848 52.9615L53.3768 57.4788C54.8552 57.6869 56.2226 56.6598 56.4312 55.1848L59.6935 32.1115C59.9021 30.6365 58.8727 29.2721 57.3944 29.064Z" fill="#E73F3F"/>
<path d="M25.7577 42.6821C25.6851 42.5898 25.6593 42.4577 25.6804 42.286L26.5236 35.3267C26.5443 35.1546 26.601 35.0305 26.6935 34.9543C26.7867 34.8784 26.9267 34.8517 27.1154 34.8742L27.997 34.9805C28.1931 35.004 28.3254 35.0617 28.394 35.1536C28.4622 35.2453 28.4859 35.3808 28.464 35.5612L28.1322 38.304L31.4017 38.6982L31.7341 35.9524C31.7548 35.7799 31.812 35.656 31.9046 35.5801C31.9971 35.5041 32.1414 35.4774 32.3375 35.5011L33.2081 35.6062C33.4041 35.6301 33.5381 35.6908 33.6099 35.7884C33.6818 35.886 33.7074 36.0201 33.6866 36.1906L32.8452 43.1462C32.8245 43.3188 32.7681 43.4402 32.676 43.5107C32.5838 43.5812 32.4395 43.6055 32.2431 43.5836L31.3731 43.4785C31.177 43.455 31.0429 43.3971 30.9706 43.3048C30.8982 43.2124 30.872 43.0806 30.8933 42.9087L31.2312 40.1143L27.9617 39.72L27.6238 42.5144C27.6025 42.6864 27.5477 42.8091 27.46 42.8789C27.3724 42.9488 27.2293 42.9761 27.0339 42.9524L26.1516 42.8461C25.9629 42.8285 25.8326 42.7708 25.7577 42.6821Z" fill="#F9F7F7"/>
<path d="M34.1226 43.6873C34.0501 43.595 34.0246 43.4631 34.0453 43.2906L34.8903 36.3319C34.911 36.16 34.9683 36.0361 35.0608 35.9595C35.1534 35.883 35.294 35.8569 35.4821 35.8794L40.3632 36.468C40.5515 36.4907 40.6763 36.5435 40.7376 36.6266C40.7989 36.7096 40.8192 36.8408 40.7985 37.0202L40.7462 37.4546C40.7242 37.6368 40.6731 37.7583 40.5933 37.8294C40.5136 37.9004 40.379 37.9223 40.1909 37.8998L36.7205 37.4813L36.4958 39.3353L38.9184 39.6275C39.1066 39.6506 39.2314 39.7028 39.2929 39.7861C39.3544 39.8693 39.3744 39.9999 39.3537 40.1803L39.3044 40.591C39.2825 40.7732 39.2314 40.8947 39.1516 40.9652C39.0719 41.0357 38.9373 41.0587 38.7492 41.0357L36.3266 40.7435L36.1001 42.6096L39.5583 43.0264C39.7464 43.0488 39.8706 43.1041 39.9321 43.1904C39.9936 43.2767 40.0125 43.4109 39.993 43.5907L39.9419 44.0129C39.92 44.1935 39.8692 44.3165 39.7897 44.3817C39.7099 44.4479 39.576 44.4691 39.3878 44.4467L34.5171 43.8592C34.3253 43.8361 34.195 43.779 34.1226 43.6873Z" fill="#F9F7F7"/>
<path d="M40.8734 44.5047C40.801 44.4124 40.7754 44.2805 40.7961 44.108L41.6387 37.1493C41.6594 36.9774 41.7167 36.8535 41.8092 36.7769C41.9017 36.7004 42.0424 36.6743 42.2305 36.6967L43.1127 36.803C43.3088 36.8265 43.4411 36.8843 43.5097 36.9762C43.5783 37.0681 43.6016 37.2038 43.5797 37.3832L42.8491 43.427L46.1661 43.8267C46.3542 43.8492 46.479 43.9045 46.5399 43.9908C46.6008 44.077 46.6209 44.2113 46.6008 44.3911L46.5496 44.8133C46.5277 44.9939 46.477 45.1168 46.3974 45.182C46.3177 45.2483 46.1837 45.2695 45.9956 45.247L41.2679 44.6766C41.0762 44.6511 40.9459 44.5934 40.8734 44.5047Z" fill="#F9F7F7"/>
<path d="M47.3539 45.2829C47.2814 45.1906 47.2553 45.0588 47.2766 44.8869L48.1192 37.9276C48.1399 37.7554 48.1967 37.6313 48.2897 37.5552C48.3826 37.479 48.5231 37.4525 48.711 37.4756L51.6511 37.8297C53.6663 38.0727 54.565 39.0939 54.347 40.8933C54.1295 42.6849 53.0133 43.4593 50.9984 43.2163L49.4696 43.034L49.2163 45.1232C49.1956 45.2951 49.1408 45.4178 49.0525 45.4877C48.9643 45.5575 48.8218 45.5849 48.6264 45.5612L47.7448 45.4548C47.556 45.4326 47.4257 45.3753 47.3539 45.2829ZM51.0416 41.7808C51.8571 41.8792 52.3159 41.5058 52.4182 40.6606C52.5205 39.8154 52.1639 39.3438 51.3485 39.2458L49.9603 39.0787L49.6559 41.6131L51.0416 41.7808Z" fill="#F9F7F7"/>
<path d="M148.922 74.0675C148.922 74.0675 148.917 74.6064 148.877 74.7807C148.755 75.3183 148.395 77.1408 146.151 79.8696C145.901 80.1733 145.708 80.5074 145.485 80.8014C143.724 83.1251 144.206 83.1415 143.609 85.5204C143.598 85.644 143.6 85.7684 143.616 85.8915C143.667 86.5488 143.85 87.9965 144.066 89.9088C144.279 91.792 144.525 94.1278 144.706 96.6045C144.74 97.0775 144.777 97.5614 144.815 98.0563C140.032 100.697 135.581 102.956 131.634 104.728C131.803 102.073 131.966 99.4985 132.115 97.1342C132.28 94.5269 132.415 92.3029 132.524 90.4841C132.71 87.3896 132.817 85.4657 132.855 84.8163C132.907 83.936 132.612 81.6373 132.293 79.0719C131.859 75.5941 131.38 71.6254 131.645 70.0351C131.753 69.3923 132.246 68.5771 132.889 67.7436C133.42 67.0542 135.523 66.6398 136.985 64.8617C137.905 63.7416 141.148 65.287 141.388 66.4029C141.388 66.4066 141.388 66.4102 141.388 66.4139C141.486 66.8677 141.579 67.2899 141.663 67.6604C141.819 68.3523 141.943 68.8626 142.011 69.0576C142.02 69.086 142.032 69.1131 142.048 69.1384L142.213 69.3401C142.423 69.5977 142.623 69.8437 142.809 70.0733C142.816 70.0818 142.822 70.0903 142.829 70.0976L143.095 70.4281L143.14 70.4852C143.499 70.9293 143.781 71.2816 143.947 71.4894C143.961 71.5058 143.973 71.5222 143.984 71.5361L144.116 71.702C144.116 71.702 144.648 71.1382 145.353 71.021C145.588 70.9801 145.829 70.9978 146.055 71.0726C146.121 71.095 146.186 71.1218 146.249 71.1528C146.31 71.1844 146.558 71.3442 146.891 71.5726L146.91 71.5854C147.908 72.2694 149.039 73.785 148.922 74.0675Z" fill="#FFA089"/>
<path d="M138.197 79.2386L138.136 79.1438C138.142 79.1395 138.786 78.71 139.115 77.6178C139.419 76.6057 139.509 74.8015 138.205 71.9555L138.309 71.9087C139.039 73.5009 139.789 75.7911 139.222 77.6603C138.877 78.7878 138.224 79.2203 138.197 79.2386Z" fill="#E87765"/>
<path d="M131.42 92.2095C131.474 91.9246 132.753 86.58 132.753 86.58L144.83 86.1401L145.744 92.8036L131.42 92.2095Z" fill="white"/>
<path d="M143.843 89.8893C142.791 89.8286 141.46 90.1232 139.946 90.8394C136.89 92.2846 135.094 90.8255 132.525 90.481C131.813 90.3824 131.09 90.3886 130.38 90.4993C129.637 90.6147 129.167 91.275 128.877 92.3217C128.17 94.864 128.536 100.948 128.633 106.02C129.784 105.548 130.817 105.094 131.637 104.725C136.895 102.369 142.506 102.795 146.673 100.458C146.715 98.4834 146.377 93.1005 146.388 92.4693C146.43 90.2629 144.577 89.9343 143.843 89.8893Z" fill="#333333"/>
<path d="M146.825 88.8848C147.092 88.7992 147.339 88.662 147.552 88.4809C147.766 88.2999 147.941 88.0786 148.069 87.8298C148.197 87.581 148.274 87.3095 148.297 87.0308C148.319 86.7521 148.286 86.4718 148.2 86.2058L138.317 55.6429C138.231 55.3768 138.094 55.1303 137.912 54.9173C137.731 54.7043 137.509 54.5291 137.26 54.4017C137.011 54.2743 136.739 54.1972 136.459 54.1748C136.18 54.1524 135.899 54.1852 135.633 54.2712C135.366 54.3567 135.119 54.4939 134.905 54.6749C134.692 54.8558 134.516 55.077 134.388 55.3258C134.261 55.5746 134.183 55.846 134.161 56.1247C134.138 56.4033 134.171 56.6836 134.257 56.9496L144.14 87.5144C144.226 87.7804 144.364 88.0269 144.545 88.2398C144.727 88.4527 144.948 88.6278 145.198 88.755C145.447 88.8823 145.719 88.9593 145.998 88.9816C146.278 89.0039 146.558 88.971 146.825 88.8848Z" fill="#080435"/>
<path d="M132.293 79.0701C135.046 77.4129 138.278 69.9045 137.801 67.8639C137.48 66.491 138.867 63.6978 139.533 62.6311C140.969 60.3312 141.777 59.2899 141.362 57.9383C141.129 57.1753 140.464 57.168 140.035 57.3916C139.639 57.5987 139.223 58.1163 138.704 58.8465C138.598 58.9959 136.13 61.3171 136.015 61.4823C134.723 63.3431 131.763 68.3195 131.763 68.3195C130.783 70.5539 132.293 79.0701 132.293 79.0701Z" fill="#FFA089"/>
<path d="M138.704 58.8472C138.83 59.0037 138.999 59.12 139.191 59.182C139.775 59.3818 140.486 58.0952 140.561 57.9026C140.614 57.7696 140.257 57.5284 140.033 57.3923C139.639 57.5995 139.223 58.1171 138.704 58.8472Z" fill="#FFB0A1"/>
<path d="M139.518 88.2796C139.474 88.193 139.456 88.0954 139.468 87.999C139.48 87.9026 139.52 87.8118 139.583 87.7381C139.646 87.6644 139.73 87.611 139.824 87.5848C139.917 87.5587 140.017 87.5608 140.109 87.5909C140.202 87.6211 140.283 87.678 140.343 87.7543C140.403 87.8307 140.439 87.9231 140.447 88.0199C140.454 88.1167 140.433 88.2135 140.385 88.2981C140.337 88.3827 140.266 88.4514 140.179 88.4953C140.063 88.5541 139.927 88.5645 139.804 88.524C139.68 88.4836 139.577 88.3957 139.518 88.2796Z" fill="#333333"/>
<path d="M150.326 65.5459L150.22 65.0187C150.023 63.9823 148.449 63.7314 146.619 64.1809L142.164 65.2805C140.288 65.7416 139.401 66.4238 139.357 67.5111C139.356 67.7323 139.395 67.9518 139.473 68.1587C139.862 69.1532 140.82 69.6088 142.696 69.1477L147.349 68.0257C149.179 67.5774 150.521 66.5817 150.326 65.5459Z" fill="#FFA089"/>
<path d="M150.824 69.6908L150.722 69.0651C150.539 67.9486 149.028 67.5956 147.265 67.9637L142.607 68.9357C140.799 69.3136 139.599 70.1586 139.587 71.3274C139.587 71.5635 139.628 71.7979 139.709 72.0199C140.105 73.1018 141.481 73.4596 143.288 73.0818L147.946 72.1098C149.713 71.7417 151.008 70.8086 150.824 69.6908Z" fill="#FFA089"/>
<path d="M151.034 73.2573L150.913 72.7768C150.672 71.8401 149.528 71.5011 148.274 71.7884L145.733 72.4937C144.736 72.7555 143.51 73.2585 143.712 74.5093C143.956 76.0195 145.782 76.0778 146.363 75.9017L149.167 75.2656C150.418 74.982 151.274 74.1934 151.034 73.2573Z" fill="#FFA089"/>
<path d="M139.971 67.7279C139.78 66.9145 140.378 66.5203 141.085 66.3647L141.976 66.1691C142.313 66.095 142.626 66.2663 142.671 66.55L142.832 67.5621C142.881 67.8762 142.617 68.2012 142.243 68.2832L141.227 68.5061C140.625 68.6385 140.056 68.0912 139.971 67.7279Z" fill="#FFB0A1"/>
<path d="M148.357 62.5717C148.339 62.4763 148.199 61.8731 148.199 61.8731C147.979 61.0117 146.704 60.9442 145.292 61.3786L142.132 62.3506C140.684 62.7958 139.789 63.0795 139.747 64.0242C139.736 64.2745 139.876 64.7531 139.998 64.9913C140.521 66.0003 141.625 65.7361 143.074 65.2908L146.108 64.5776C147.52 64.1426 148.525 63.4465 148.357 62.5717Z" fill="#FFA089"/>
<path d="M140.216 71.724L140.193 71.6487C139.983 70.9707 140.309 70.3025 140.916 70.1634L141.714 69.9811C142.004 69.9143 142.323 70.1251 142.423 70.4483L142.768 71.5654C142.878 71.9238 142.707 72.278 142.385 72.3515L141.481 72.5587C140.963 72.6771 140.394 72.3011 140.216 71.724Z" fill="#FFB0A1"/>
<path d="M144.209 74.4116L144.214 74.4341C144.318 75.0197 144.838 75.4121 145.37 75.3058L146.292 75.1235C146.546 75.0731 146.713 74.8028 146.664 74.5234L146.499 73.6C146.444 73.2902 146.169 73.0824 145.887 73.1389L144.872 73.3412C144.421 73.4299 144.121 73.9122 144.209 74.4116Z" fill="#FFB0A1"/>
<path d="M140.13 64.5854L140.097 64.4396C139.985 63.9372 140.336 63.3984 140.878 63.2422L141.496 63.0643C141.755 62.9901 142.011 63.125 142.064 63.368L142.27 64.2859C142.331 64.5514 142.144 64.8369 141.857 64.9195L141.144 65.1248C140.682 65.2542 140.226 65.0131 140.13 64.5854Z" fill="#FFB0A1"/>
<path d="M148.788 67.5894L142.083 69.0913L142.11 69.2142L148.816 67.7123L148.788 67.5894Z" fill="#E87765"/>
<path d="M147.318 63.9718L140.907 65.594L140.938 65.7155L147.349 64.0933L147.318 63.9718Z" fill="#E87765"/>
<path d="M149.595 71.3977L144.632 72.7319L144.665 72.853L149.628 71.5187L149.595 71.3977Z" fill="#E87765"/>
<path d="M147.746 75.6514C147.356 75.7401 145.833 76.0287 145.817 76.0311L145.794 75.9096C145.809 75.9096 147.33 75.6186 147.718 75.5305L147.746 75.6514Z" fill="#E87765"/>
<path d="M151.235 51.2851L120.568 61.746C120.232 61.8606 119.877 61.9081 119.523 61.8857C119.168 61.8633 118.822 61.7715 118.503 61.6155C118.184 61.4596 117.9 61.2425 117.665 60.9766C117.43 60.7108 117.25 60.4015 117.135 60.0663L109.58 38.0147C109.349 37.3378 109.396 36.5967 109.711 35.9544C110.027 35.3122 110.585 34.8213 111.264 34.5897L141.931 24.1283C142.609 23.897 143.352 23.944 143.996 24.259C144.639 24.574 145.131 25.1312 145.363 25.808L152.918 47.8596C153.033 48.1948 153.081 48.5493 153.058 48.9029C153.036 49.2565 152.944 49.6022 152.788 49.9203C152.631 50.2384 152.414 50.5227 152.147 50.7569C151.881 50.9911 151.571 51.1706 151.235 51.2851Z" fill="#E73F3F"/>
<path d="M119.897 50.5551C119.791 50.5053 119.708 50.3996 119.648 50.2368L117.244 43.6505C117.184 43.4885 117.179 43.3522 117.227 43.2416C117.275 43.1311 117.388 43.0438 117.566 42.9798L118.401 42.6761C118.583 42.6086 118.731 42.6007 118.833 42.6512C118.935 42.7016 119.016 42.8128 119.08 42.9828L120.029 45.5817L123.123 44.4572L122.175 41.8578C122.115 41.6958 122.11 41.5595 122.158 41.449C122.206 41.3384 122.323 41.2499 122.509 41.1835L123.332 40.884C123.517 40.8164 123.664 40.8091 123.772 40.8621C123.88 40.9152 123.963 41.0233 124.023 41.1865L126.427 47.7722C126.488 47.9356 126.492 48.0699 126.442 48.1762C126.393 48.2825 126.275 48.3688 126.09 48.4362L125.266 48.7357C125.08 48.8033 124.935 48.8122 124.828 48.7624C124.722 48.7126 124.639 48.6065 124.579 48.4441L123.614 45.801L120.52 46.9254L121.485 49.5692C121.544 49.7312 121.551 49.8648 121.505 49.9701C121.46 50.0754 121.344 50.1614 121.158 50.2283L120.323 50.532C120.146 50.597 120.006 50.6043 119.897 50.5551Z" fill="#F9F7F7"/>
<path d="M127.811 47.678C127.705 47.6286 127.622 47.5225 127.562 47.3597L125.158 40.774C125.098 40.612 125.093 40.4755 125.141 40.3645C125.189 40.2536 125.302 40.1663 125.48 40.1027L130.1 38.4237C130.278 38.3593 130.413 38.3499 130.506 38.3957C130.598 38.4415 130.675 38.5498 130.738 38.7207L130.888 39.1314C130.95 39.3023 130.961 39.4365 130.921 39.5341C130.881 39.6325 130.773 39.7164 130.594 39.7771L127.312 40.9726L127.953 42.727L130.244 41.8924C130.423 41.828 130.558 41.8183 130.651 41.8644C130.743 41.9106 130.82 42.0187 130.882 42.1888L131.024 42.5776C131.086 42.7485 131.098 42.883 131.058 42.981C131.018 43.079 130.909 43.16 130.731 43.224L128.438 44.0574L129.083 45.8234L132.355 44.6339C132.534 44.5695 132.669 44.5616 132.763 44.6115C132.857 44.6613 132.935 44.7712 132.998 44.9419L133.143 45.3416C133.204 45.5117 133.216 45.6454 133.175 45.7389C133.133 45.8325 133.024 45.9133 132.846 45.9777L128.238 47.6531C128.06 47.7199 127.917 47.7278 127.811 47.678Z" fill="#F9F7F7"/>
<path d="M134.2 45.3551C134.094 45.3053 134.011 45.1995 133.952 45.0361L131.547 38.4504C131.488 38.2884 131.482 38.152 131.53 38.041C131.578 37.9316 131.692 37.8442 131.869 37.7798L132.704 37.476C132.89 37.4084 133.034 37.4001 133.136 37.4511C133.239 37.5022 133.321 37.6127 133.384 37.7828L135.472 43.5022L138.611 42.3614C138.789 42.297 138.925 42.2891 139.019 42.3389C139.113 42.3887 139.191 42.4987 139.253 42.6694L139.399 43.0691C139.461 43.2392 139.472 43.3716 139.431 43.4664C139.39 43.5612 139.28 43.6408 139.102 43.7051L134.627 45.332C134.449 45.3972 134.307 45.4049 134.2 45.3551Z" fill="#F9F7F7"/>
<path d="M140.334 43.1267C140.227 43.0773 140.144 42.9712 140.085 42.8084L137.68 36.222C137.619 36.0592 137.615 35.9232 137.663 35.8132C137.711 35.7033 137.824 35.6158 138.003 35.5514L140.785 34.5399C142.693 33.8466 143.958 34.3514 144.579 36.0544C145.198 37.7497 144.554 38.9444 142.646 39.6385L141.2 40.164L141.924 42.1407C141.984 42.3027 141.991 42.4366 141.945 42.5423C141.899 42.6468 141.783 42.733 141.598 42.8005L140.763 43.1042C140.585 43.168 140.44 43.1759 140.334 43.1267ZM142.034 38.3385C142.805 38.0578 143.045 37.5176 142.754 36.7177C142.462 35.9179 141.93 35.6583 141.158 35.939L139.844 36.4158L140.72 38.8154L142.034 38.3385Z" fill="#F9F7F7"/>
<path d="M77.0379 68.8486C77.0379 68.8486 77.1749 69.3698 77.2565 69.529C77.5079 70.0204 78.3018 71.7001 81.1469 73.799C81.4629 74.0322 81.7326 74.3093 82.0206 74.5401C84.2977 76.3625 83.835 76.4974 84.996 78.6588C85.0373 78.7769 85.0655 78.8991 85.0801 79.0233C85.1915 79.6727 85.3686 81.1209 85.628 83.0284C85.8825 84.9074 86.2168 87.231 86.6478 89.6773C86.7306 90.1438 86.8134 90.6231 86.898 91.111C92.1822 92.5082 97.0517 93.6107 101.313 94.3658C100.499 91.8326 99.7099 89.3766 98.9853 87.1168C98.1878 84.6261 97.5113 82.5054 96.9603 80.7686C96.0221 77.8126 95.4474 75.9731 95.2507 75.3535C94.9847 74.5128 94.7064 72.2116 94.388 69.6432C93.9575 66.1654 93.4528 62.1997 92.805 60.7223C92.542 60.1258 91.865 59.4582 91.0394 58.8039C90.3563 58.2651 88.215 58.3787 86.3617 57.0088C85.1945 56.1468 82.4292 58.437 82.4693 59.5772C82.4693 59.5803 82.4693 59.5839 82.4693 59.5876C82.4852 60.0523 82.4986 60.4842 82.5083 60.8633C82.526 61.5722 82.5302 62.0977 82.512 62.303C82.5107 62.3327 82.5055 62.3621 82.4967 62.3905L82.3859 62.6262C82.2459 62.9299 82.112 63.2142 81.9878 63.4827C81.9835 63.4924 81.9792 63.5022 81.975 63.5107C81.9141 63.6449 81.8532 63.7737 81.7978 63.8964C81.7874 63.9189 81.7777 63.9408 81.7674 63.9626C81.5281 64.4808 81.3412 64.8909 81.2316 65.1332L81.2066 65.1873C81.15 65.3131 81.1189 65.3805 81.1189 65.3805C81.1189 65.3805 80.4657 64.9632 79.7533 65.0221C79.5151 65.039 79.2849 65.115 79.0836 65.2432C79.0245 65.2812 78.968 65.323 78.9143 65.3683C78.8608 65.4139 78.6617 65.6296 78.395 65.9315C78.3902 65.9374 78.3852 65.9431 78.3798 65.9485C77.581 66.8597 76.8558 68.6014 77.0379 68.8486Z" fill="#FFA089"/>
<path d="M88.7051 71.2472L88.7416 71.1403C88.7343 71.1403 88.0055 70.8785 87.4192 69.8992C86.8755 68.9922 86.3464 67.2645 86.9139 64.1889L86.8019 64.1682C86.4846 65.8904 86.3184 68.2942 87.3273 69.9684C87.9355 70.9763 88.674 71.2369 88.7051 71.2472Z" fill="#E87765"/>
<path d="M98.4532 82.172C98.3315 81.909 95.781 77.0388 95.781 77.0388L83.9628 79.5562L84.7105 86.2385L98.4532 82.172Z" fill="white"/>
<path d="M85.8393 82.952C86.8439 82.6355 88.2064 82.5978 89.8515 82.9228C93.1691 83.5789 94.5524 81.7261 96.9597 80.7657C97.6262 80.496 98.3288 80.3255 99.045 80.2596C99.7927 80.191 100.41 80.7165 100.948 81.6599C102.256 83.9531 105.161 94.2821 106.31 99.224C105.077 99.046 101.388 101.61 100.502 101.453C94.8264 100.45 89.3967 99.4864 84.7835 98.2368C84.2587 96.3324 84.1698 86.6832 84.0042 86.0739C83.424 83.9452 85.1379 83.175 85.8393 82.952Z" fill="#0071BC"/>
<path d="M82.7013 82.7047C82.4218 82.6867 82.1485 82.6139 81.8972 82.4904C81.6458 82.367 81.4214 82.1952 81.2366 81.9851C81.0519 81.775 80.9105 81.5306 80.8205 81.2659C80.7305 81.0012 80.6937 80.7214 80.7122 80.4425L82.806 48.3966C82.824 48.1176 82.8969 47.8449 83.0206 47.5941C83.1444 47.3433 83.3165 47.1192 83.5271 46.9348C83.7377 46.7504 83.9826 46.6093 84.248 46.5195C84.5133 46.4296 84.7938 46.3929 85.0734 46.4114C85.3529 46.4294 85.6262 46.5022 85.8775 46.6257C86.1288 46.7492 86.3533 46.9209 86.538 47.131C86.7228 47.3411 86.8642 47.5855 86.9542 47.8502C87.0442 48.1149 87.081 48.3947 87.0624 48.6736L84.9668 80.7201C84.9488 80.9989 84.8758 81.2713 84.7522 81.522C84.6286 81.7726 84.4566 81.9965 84.2462 82.1808C84.0359 82.3651 83.7911 82.5063 83.526 82.5962C83.2609 82.6861 82.9807 82.7229 82.7013 82.7047Z" fill="#080435"/>
<path d="M94.388 69.6426C91.3128 68.7077 86.3392 62.2149 86.302 60.1197C86.2771 58.7104 84.2484 56.3406 83.3406 55.4682C81.3844 53.5851 80.3464 52.7765 80.4182 51.3641C80.4578 50.5671 81.1001 50.3976 81.575 50.5136C82.0091 50.6181 82.5394 51.0184 83.2189 51.5998C83.3577 51.7213 86.3197 53.3676 86.4713 53.5C88.1803 54.9895 92.2687 59.0925 92.2687 59.0925C93.7652 61.0182 94.388 69.6426 94.388 69.6426Z" fill="#FFA089"/>
<path d="M83.2182 51.5981C83.1333 51.7809 82.9971 51.9351 82.8261 52.0422C82.3092 52.3781 81.304 51.3041 81.1823 51.1352C81.0989 51.0192 81.3856 50.6991 81.5701 50.512C82.0054 50.6164 82.5357 51.0168 83.2182 51.5981Z" fill="#FFB0A1"/>
<path d="M89.6139 80.4153C89.7179 80.1649 89.5988 79.8777 89.3478 79.7739C89.0968 79.6702 88.809 79.789 88.705 80.0395C88.601 80.2899 88.7201 80.5771 88.9711 80.6808C89.2221 80.7846 89.5099 80.6657 89.6139 80.4153Z" fill="#333333"/>
<path d="M73.5906 60.9278L73.5645 60.3902C73.5036 59.338 74.9648 58.7099 76.8522 58.7002L81.4398 58.6813C83.3723 58.671 84.4 59.1157 84.7087 60.1599C84.7639 60.374 84.7793 60.5964 84.7543 60.816C84.621 61.8749 83.8033 62.5504 81.8715 62.5607L77.0829 62.6075C75.1992 62.6178 73.6534 61.9799 73.5906 60.9278Z" fill="#FFA089"/>
<path d="M74.1216 65.0691L74.068 64.4373C73.973 63.3092 75.3502 62.5991 77.1499 62.5262L81.905 62.3336C83.7504 62.2589 85.1209 62.7862 85.4192 63.9131C85.4765 64.1425 85.4928 64.3802 85.4673 64.6153C85.3455 65.7604 84.1023 66.4432 82.2569 66.5179L77.5018 66.7105C75.7021 66.7865 74.2165 66.1966 74.1216 65.0691Z" fill="#FFA089"/>
<path d="M74.7913 68.5785V68.0822C74.7949 67.1156 75.8233 66.5106 77.1049 66.4802L79.7418 66.5446C80.7725 66.5549 82.084 66.7439 82.1954 68.0062C82.3293 69.5298 80.5698 70.0328 79.9658 70.0024L77.0915 70.0698C75.8111 70.1002 74.7876 69.545 74.7913 68.5785Z" fill="#FFA089"/>
<path d="M84.1644 60.5184C84.1503 59.6831 83.4739 59.4468 82.7512 59.4686L81.838 59.496C81.4928 59.5063 81.2291 59.7487 81.2577 60.0348L81.3497 61.0554C81.3789 61.3725 81.715 61.6222 82.0979 61.6106L83.1372 61.5796C83.7534 61.5608 84.1704 60.892 84.1644 60.5184Z" fill="#FFB0A1"/>
<path d="M74.7694 57.5654C74.7639 57.4688 74.7511 56.8497 74.7511 56.8497C74.7511 55.961 75.973 55.585 77.4489 55.6609L80.7512 55.8322C82.2642 55.9106 83.2012 55.9671 83.4733 56.8734C83.5458 57.1164 83.5281 57.6127 83.4673 57.8721C83.2073 58.9777 82.0712 58.9911 80.5582 58.9127L77.441 58.9613C75.9657 58.883 74.8217 58.4529 74.7694 57.5654Z" fill="#FFA089"/>
<path d="M84.9059 64.4531L84.9102 64.3747C84.9473 63.6664 84.4676 63.099 83.8447 63.1105L83.0258 63.1275C82.7287 63.1342 82.4712 63.4155 82.4535 63.7538L82.3926 64.9208C82.3731 65.2962 82.627 65.5969 82.9564 65.589L83.8843 65.569C84.4152 65.5593 84.8761 65.0563 84.9059 64.4531Z" fill="#FFB0A1"/>
<path d="M81.6919 68.033V68.0561C81.7345 68.649 81.3266 69.1569 80.7841 69.1836L79.8453 69.2298C79.5865 69.2425 79.3582 69.0214 79.3381 68.7377L79.2711 67.8028C79.2486 67.4887 79.4647 67.2202 79.7515 67.2062L80.7865 67.1552C81.2486 67.1327 81.6559 67.5282 81.6919 68.033Z" fill="#FFB0A1"/>
<path d="M83.2408 57.5103L83.2365 57.3608C83.2225 56.8463 82.7494 56.4095 82.1862 56.3889L81.5433 56.367C81.2742 56.3579 81.0562 56.5493 81.066 56.7971L81.0909 57.7369C81.0983 58.0096 81.3485 58.2405 81.6468 58.2508L82.3884 58.2757C82.8669 58.2945 83.2523 57.9483 83.2408 57.5103Z" fill="#FFB0A1"/>
<path d="M83.2729 62.3312L76.4341 62.5254L76.4377 62.6508L83.2765 62.4566L83.2729 62.3312Z" fill="#E87765"/>
<path d="M76.1252 58.6754L76.125 58.8008L82.7382 58.81L82.7384 58.6846L76.1252 58.6754Z" fill="#E87765"/>
<path d="M75.7359 66.4317L75.7339 66.5571L80.8724 66.6404L80.8745 66.515L75.7359 66.4317Z" fill="#E87765"/>
<path d="M78.5667 70.0983C78.9667 70.0892 80.515 69.9972 80.5302 69.996L80.5223 69.8706C80.5071 69.8706 78.9612 69.9638 78.5637 69.9729L78.5667 70.0983Z" fill="#E87765"/>
<path d="M69.2143 47.3216L101.514 49.9866C102.228 50.0454 102.937 49.8187 103.484 49.3563C104.031 48.8939 104.372 48.2337 104.431 47.5208L106.355 24.298C106.385 23.945 106.344 23.5897 106.236 23.2524C106.127 22.9151 105.953 22.6024 105.724 22.3321C105.494 22.0618 105.214 21.8393 104.898 21.6773C104.582 21.5152 104.238 21.4168 103.884 21.3876L71.5845 18.7226C71.2307 18.6934 70.8746 18.734 70.5366 18.8421C70.1985 18.9502 69.8851 19.1237 69.6142 19.3527C69.3433 19.5816 69.1203 19.8616 68.9579 20.1765C68.7955 20.4915 68.6968 20.8353 68.6676 21.1883L66.743 44.4111C66.7138 44.7641 66.7545 45.1194 66.8628 45.4567C66.9712 45.7941 67.145 46.1068 67.3745 46.377C67.604 46.6473 67.8846 46.8698 68.2003 47.0319C68.5159 47.1939 68.8605 47.2924 69.2143 47.3216Z" fill="#E73F3F"/>
<path d="M73.1438 37.1674C73.0676 37.0781 73.0366 36.9475 73.0506 36.7743L73.6107 29.7883C73.6249 29.6158 73.6767 29.4896 73.766 29.4098C73.8553 29.3301 73.9945 29.2977 74.1836 29.3126L75.0695 29.3831C75.2664 29.3989 75.4009 29.4511 75.4732 29.5398C75.5454 29.6285 75.574 29.7632 75.559 29.9438L75.338 32.7012L78.6209 32.9636L78.8419 30.2062C78.8557 30.0337 78.9074 29.9074 78.9971 29.8272C79.0868 29.747 79.2301 29.715 79.427 29.7312L80.3007 29.8011C80.4973 29.8168 80.6343 29.8709 80.7098 29.9639C80.7853 30.0568 80.8163 30.1898 80.8023 30.363L80.2422 37.349C80.228 37.5219 80.1765 37.6463 80.0876 37.722C79.9987 37.7977 79.8566 37.8279 79.6614 37.8125L78.7877 37.742C78.5904 37.7262 78.4538 37.6738 78.3779 37.5847C78.3018 37.496 78.2708 37.3648 78.2848 37.1923L78.5095 34.3875L75.2266 34.1257L75.0019 36.9298C74.9877 37.1032 74.9382 37.2277 74.8534 37.3034C74.7675 37.3794 74.6269 37.4098 74.4302 37.394L73.5444 37.3235C73.352 37.3083 73.2199 37.2561 73.1438 37.1674Z" fill="#F9F7F7"/>
<path d="M81.5397 37.8373C81.4642 37.7486 81.4325 37.6174 81.4465 37.4449L82.0073 30.4589C82.0207 30.2864 82.0724 30.16 82.1625 30.0798C82.252 30.0002 82.3908 29.9674 82.5802 29.9826L87.4807 30.3738C87.6703 30.3892 87.7971 30.437 87.8613 30.5172C87.9264 30.5974 87.9514 30.728 87.9374 30.9084L87.9021 31.3446C87.8874 31.5268 87.8412 31.652 87.7645 31.7249C87.6877 31.7978 87.5544 31.8269 87.3657 31.8117L83.8819 31.5335L83.7327 33.3948L86.1681 33.5892C86.3574 33.6044 86.4841 33.65 86.5492 33.7326C86.6144 33.8152 86.6393 33.9434 86.6247 34.1238L86.5912 34.5363C86.5772 34.7185 86.5303 34.8437 86.4542 34.9166C86.3781 34.9895 86.2436 35.0186 86.0548 35.0034L83.6195 34.8091L83.4697 36.6825L86.9401 36.9595C87.1288 36.9747 87.2561 37.0245 87.3206 37.1084C87.3852 37.1922 87.4101 37.3252 87.3955 37.5057L87.3614 37.9309C87.3468 38.1131 87.3005 38.2346 87.2244 38.3051C87.1483 38.3756 87.015 38.4011 86.8256 38.3859L81.9366 37.9959C81.7483 37.9797 81.616 37.9268 81.5397 37.8373Z" fill="#F9F7F7"/>
<path d="M88.3185 38.3786C88.2424 38.2899 88.2113 38.1587 88.2247 37.9862L88.7854 31.0002C88.7994 30.8277 88.8506 30.7013 88.9407 30.6211C89.0308 30.5409 89.1696 30.5087 89.3584 30.5239L90.2442 30.595C90.4409 30.6108 90.5754 30.6624 90.6473 30.7517C90.7191 30.841 90.7483 30.9753 90.7337 31.1557L90.2467 37.2238L93.5764 37.4899C93.7656 37.5045 93.8924 37.5541 93.9569 37.6387C94.0215 37.7234 94.0464 37.8558 94.0318 38.036L93.9977 38.4613C93.9835 38.6423 93.9379 38.767 93.8607 38.8355C93.7836 38.9039 93.6503 38.9306 93.4607 38.9157L88.7118 38.5366C88.5291 38.5202 88.394 38.4679 88.3185 38.3786Z" fill="#F9F7F7"/>
<path d="M94.8252 38.8987C94.7493 38.8092 94.718 38.6782 94.7314 38.5057L95.2921 31.5196C95.3061 31.3471 95.3573 31.2208 95.4474 31.1406C95.5375 31.0604 95.6757 31.0288 95.8651 31.044L98.8173 31.2797C100.841 31.4417 101.78 32.4256 101.635 34.2314C101.491 36.0308 100.407 36.8495 98.3832 36.6875L96.8483 36.566L96.6803 38.6636C96.6661 38.8361 96.6164 38.9607 96.5311 39.0372C96.4459 39.1138 96.3038 39.1439 96.105 39.1277L95.2191 39.0573C95.0324 39.0407 94.9011 38.9878 94.8252 38.8987ZM98.368 35.2502C99.1863 35.3158 99.6297 34.9244 99.6983 34.0759C99.7669 33.2275 99.3925 32.7706 98.575 32.7054L97.1814 32.5943L96.9774 35.139L98.368 35.2502Z" fill="#F9F7F7"/>
</g>
</svg>
